<?xml version="1.0" encoding="UTF-8" standalone="no"?>
<svg xmlns="http://www.w3.org/2000/svg" version="1.1" width="200" height="120" id="svg2">
    <defs id="defs12"/>
    <rect width="199.5" height="119.5" rx="10" ry="10" x="0.25" y="0.25" id="rect4" style="fill:#FFFFFF;stroke:#000000;stroke-width:0.25"/>
    <path d="M 7,60 7,22 Q 7,20 10,19 L 98,5.1 Q 98,5 100,5 102,5 102,5.1 L 190,19 Q 193,20 193,22 L 193,98 Q 193,100 190,101 L 102,114.9 Q 102,115 100,115 98,115 98,114.9 L 10,101 Q 7,100 7,98" id="path6" style="fill:#003ABD;fill-opacity:1;stroke:none"/>
    <path d="M 99.93,94.18 V 36.97 L 90.33,43.99 V 33.74 L 99.93,26.77 H 109.6 V 94.18 H 99.93 z" id="path8" style="fill:#FFFFFF;fill-rule:evenodd;stroke:none"/>
</svg>