<?xml version="1.0" encoding="UTF-8" standalone="no"?>
<svg xmlns:svg="http://www.w3.org/2000/svg" xmlns="http://www.w3.org/2000/svg" version="1.1" width="400px" height="240px" viewBox="0 0 200 120">
	<defs/>
	<rect id="border" x="0.25" y="0.25" rx="10" ry="10" width="199.5" height="119.5" style="fill :#FFFFFF;stroke :#000000;stroke-width :0.50"/>
    <path id="blueback" d="M 7,60 7,22 Q 7,20 10,19 L 98,5.1 Q 98,5 100,5 102,5 102,5.1 L 190,19 Q 193,20 193,22 L 193,98 Q 193,100 190,101 L 102,114.9 Q 102,115 100,115 98,115 98,114.9 L 10,101 Q 7,100 7,98" style="fill :#003ABD; stroke :none"/>
    <path id="number" d="M 77.24,94.18 V 36.97 L 67.63,43.99 V 33.74 L 77.24,26.77 H 86.93 V 94.18 H 77.24 z M 125.5,74.7 V 46.12 Q 125.5,41.27 122.9,38.54 120.3,35.82 116,35.82 111.7,35.82 109.1,38.54 106.6,41.27 106.6,46.12 V 74.7 Q 106.6,79.59 109.1,82.27 111.7,84.95 116,85 120.3,85 122.9,82.32 125.4,79.64 125.5,74.7 z M 96.91,75.25 V 45.56 Q 96.91,36.28 102.7,31.25 108.5,26.22 116,26.17 123.5,26.17 129.3,31.2 135.1,36.24 135.1,45.56 V 75.25 Q 135.1,84.53 129.3,89.57 123.5,94.6 116,94.6 108.5,94.6 102.7,89.57 96.91,84.53 96.91,75.25 z" style="fill :#FFFFFF; fill-rule :evenodd; stroke :none"/>
</svg>