<?xml version="1.0" encoding="UTF-8" standalone="no"?>
<!DOCTYPE svg PUBLIC "-//W3C//DTD SVG 1.1//EN" "http://www.w3.org/Graphics/SVG/1.1/DTD/svg11.dtd">
<svg xmlns:svg="http://www.w3.org/2000/svg" xmlns="http://www.w3.org/2000/svg" version="1.1" width="400px" height="240px" viewBox="0 0 200 120">
	<defs/>
	<rect id="border" style="fill :#FFFFFF; fill-rule :evenodd; stroke :#000000; stroke-width :0.50;" x="0.25" y="0.25" rx="10" ry="10" width="199.5" height="119.5"/>
    <path id="blueback" style="fill :#003ABD; fill-rule :evenodd; stroke :none;" d="M 7,60 7,22 Q 7,20 10,19 L 98,5.1 Q 98,5 100,5 102,5 102,5.1 L 190,19 Q 193,20 193,22 L 193,98 Q 193,100 190,101 L 102,114.9 Q 102,115 100,115 98,115 98,114.9 L 10,101 Q 7,100 7,98"/>
    <path id="number103" style="fill :#FFFFFF; fill-rule :evenodd; stroke :none;" d="M 54.54,94.18 V 36.97 L 44.94,43.99 V 33.74 L 54.54,26.77 H 64.24 V 94.18 H 54.54 z M 102.8,74.7 V 46.12 Q 102.8,41.27 100.2,38.54 97.62,35.82 93.33,35.82 89.03,35.82 86.45,38.54 83.86,41.27 83.86,46.12 V 74.7 Q 83.86,79.59 86.45,82.27 89.03,84.95 93.33,85 97.58,85 100.2,82.32 102.7,79.64 102.8,74.7 z M 74.21,75.25 V 45.56 Q 74.21,36.28 80.03,31.25 85.85,26.22 93.33,26.17 100.8,26.17 106.6,31.2 112.4,36.24 112.4,45.56 V 75.25 Q 112.4,84.53 106.6,89.57 100.8,94.6 93.33,94.6 85.85,94.6 80.03,89.57 74.21,84.53 74.21,75.25 z M 132.7,63.62 V 55.12 H 136 Q 140.8,55.12 143.6,52.44 146.3,49.76 146.4,45.56 146.4,41.45 143.5,38.64 140.6,35.82 136.5,35.82 133.5,35.82 130.8,37.85 128.1,39.88 127.3,43.95 H 117.6 Q 118.2,36.84 123.6,31.53 129,26.22 136.2,26.17 145.2,26.17 150.6,32.08 156,37.99 156,45.38 156,49.26 154.5,52.9 153,56.55 148.8,59.28 153.1,62 154.9,65.97 156.8,69.94 156.8,74.01 156.8,83.43 150.9,89.01 145,94.6 136.4,94.6 129.5,94.6 124.1,90.21 118.6,85.83 117.2,77.33 H 126.9 Q 128.2,80.79 130.5,82.87 132.8,84.95 136.9,85 140.9,85 144,82.18 147.1,79.36 147.1,74.33 147.1,69.3 144.1,66.48 141,63.66 136.7,63.62 H 132.7 z"/>
</svg>