<?xml version="1.0" encoding="UTF-8" standalone="no"?>
<svg xmlns:svg="http://www.w3.org/2000/svg" xmlns="http://www.w3.org/2000/svg" version="1.1" width="400px" height="240px" viewBox="0 0 200 120">
	<defs/>
	<rect id="border" x="0.25" y="0.25" rx="10" ry="10" width="199.5" height="119.5" style="fill :#FFFFFF;stroke :#000000;stroke-width :0.50"/>
    <path id="blueback" d="M 7,60 7,22 Q 7,20 10,19 L 98,5.1 Q 98,5 100,5 102,5 102,5.1 L 190,19 Q 193,20 193,22 L 193,98 Q 193,100 190,101 L 102,114.9 Q 102,115 100,115 98,115 98,114.9 L 10,101 Q 7,100 7,98" style="fill :#003ABD; stroke :none"/>
    <path id="number" d="M 77.24,94.18 V 36.97 L 67.63,43.99 V 33.74 L 77.24,26.77 H 86.93 V 94.18 H 77.24 z M 96.35,94.05 V 85 L 122.7,52.07 Q 124.2,50.13 124.7,48.52 125.1,46.9 125.1,45.38 125.1,41.87 122.6,38.87 120.1,35.87 115.8,35.82 111.9,35.82 109.1,38.41 106.4,40.99 106,45.56 H 96.35 Q 96.4,37.39 101.9,31.8 107.5,26.22 115.1,26.17 123.5,26.17 129.1,31.8 134.7,37.44 134.7,45.47 134.7,52.3 130.7,57.29 L 109.1,84.44 H 134.7 V 94.05 H 96.35 z" style="fill :#FFFFFF; fill-rule :evenodd; stroke :none"/>
</svg>