<?xml version="1.0" encoding="UTF-8" standalone="no"?>
<svg xmlns:svg="http://www.w3.org/2000/svg" xmlns="http://www.w3.org/2000/svg" version="1.1" width="400px" height="240px" viewBox="0 0 200 120">
	<defs/>
	<rect id="border" x="0.25" y="0.25" rx="10" ry="10" width="199.5" height="119.5" style="fill :#FFFFFF;stroke :#000000;stroke-width :0.50"/>
    <path id="blueback" d="M 7,60 7,22 Q 7,20 10,19 L 98,5.1 Q 98,5 100,5 102,5 102,5.1 L 190,19 Q 193,20 193,22 L 193,98 Q 193,100 190,101 L 102,114.9 Q 102,115 100,115 98,115 98,114.9 L 10,101 Q 7,100 7,98" style="fill :#003ABD; stroke :none"/>
    <path id="number" d="M 77.24,94.18 V 36.97 L 67.63,43.99 V 33.74 L 77.24,26.77 H 86.93 V 94.18 H 77.24 z M 110,63.62 V 55.12 H 113.3 Q 118.1,55.12 120.9,52.44 123.6,49.76 123.7,45.56 123.7,41.45 120.8,38.64 117.9,35.82 113.9,35.82 110.8,35.82 108.1,37.85 105.4,39.88 104.6,43.95 H 94.92 Q 95.47,36.84 100.9,31.53 106.3,26.22 113.5,26.17 122.5,26.17 127.9,32.08 133.3,37.99 133.3,45.38 133.3,49.26 131.8,52.9 130.3,56.55 126.1,59.28 130.4,62 132.2,65.97 134.1,69.94 134.1,74.01 134.1,83.43 128.2,89.01 122.3,94.6 113.7,94.6 106.8,94.6 101.4,90.21 95.94,85.83 94.55,77.33 H 104.2 Q 105.5,80.79 107.8,82.87 110.1,84.95 114.2,85 118.2,85 121.3,82.18 124.4,79.36 124.4,74.33 124.4,69.3 121.4,66.48 118.3,63.66 114,63.62 H 110 z" style="fill :#FFFFFF; fill-rule :evenodd; stroke :none"/>
</svg>