<?xml version="1.0" encoding="UTF-8" standalone="no"?>
<svg xmlns:svg="http://www.w3.org/2000/svg" xmlns="http://www.w3.org/2000/svg" version="1.1" width="400px" height="240px" viewBox="0 0 200 120">
	<defs/>
	<rect id="border" x="0.25" y="0.25" rx="10" ry="10" width="199.5" height="119.5" style="fill :#FFFFFF;stroke :#000000; stroke-width :0.50;"/>
	<path id="blueback" d="M 7,60 7,22 Q 7,20 10,19 L 98,5.1 Q 98,5 100,5 102,5 102,5.1 L 190,19 Q 193,20 193,22 L 193,98 Q 193,100 190,101 L 102,114.9 Q 102,115 100,115 98,115 98,114.9 L 10,101 Q 7,100 7,98" style="fill :#003ABD; stroke :none;"/>
	<path id="number" d="M 77.24,94.18 V 36.97 L 67.63,43.99 V 33.74 L 77.24,26.77 H 86.93 V 94.18 H 77.24 z M 94.46,84.07 V 74.98 L 117,26.77 H 127.8 L 105,74.98 H 122.5 V 55.58 H 132.2 V 74.98 H 137.6 V 84.07 H 132.2 V 94.05 H 122.5 V 84.07 H 94.46 z" style="fill :#FFFFFF; fill-rule :evenodd; stroke :none;"/>
</svg>