<?xml version="1.0" encoding="UTF-8" standalone="no"?>
<svg xmlns:svg="http://www.w3.org/2000/svg" xmlns="http://www.w3.org/2000/svg" version="1.1" width="400px" height="240px" viewBox="0 0 200 120">
	<defs/>
	<rect id="border" x="0.25" y="0.25" rx="10" ry="10" width="199.5" height="119.5" style="fill :#FFFFFF;stroke :#000000;stroke-width :0.50"/>
	<path id="blueback" d="M 7,60 7,22 Q 7,20 10,19 L 98,5.1 Q 98,5 100,5 102,5 102,5.1 L 190,19 Q 193,20 193,22 L 193,98 Q 193,100 190,101 L 102,114.9 Q 102,115 100,115 98,115 98,114.9 L 10,101 Q 7,100 7,98" style="fill :#003ABD; stroke :none;"/>
	<path id="number" d="M 77.24,94.18 V 36.97 L 67.63,43.99 V 33.74 L 77.24,26.77 H 86.93 V 94.18 H 77.24 z M 98.06,63.16 V 26.77 H 133.9 V 36.42 H 107.2 V 51.61 Q 111.8,47.92 117.9,47.92 121.7,47.92 124.9,49.39 128,50.87 129.9,52.86 132.7,55.86 133.9,59.37 135.2,62.88 135.2,71.28 135.2,78.07 134.3,81.35 133.3,84.63 131.1,87.44 129,90.08 125.3,92.34 121.5,94.6 116.5,94.6 110,94.6 103.9,90.58 97.88,86.57 96.81,77.15 H 106.5 Q 108.2,85 116.1,85 123.2,85 124.4,80.15 125.6,75.3 125.6,70.54 125.6,64.96 123.7,61.26 121.8,57.57 115.8,57.57 110.3,57.57 107.2,63.16 H 98.06 z" style="fill :#FFFFFF; fill-rule :evenodd; stroke :none;"/>
</svg>