<?xml version="1.0" encoding="UTF-8" standalone="no"?>
<svg xmlns:svg="http://www.w3.org/2000/svg" xmlns="http://www.w3.org/2000/svg" version="1.1" width="400px" height="240px" viewBox="0 0 200 120">
	<defs/>
	<rect id="border" x="0.25" y="0.25" rx="10" ry="10" width="199.5" height="119.5" style="fill :#FFFFFF;stroke :#000000;stroke-width :0.50"/>
	<path id="blueback" d="M 7,60 7,22 Q 7,20 10,19 L 98,5.1 Q 98,5 100,5 102,5 102,5.1 L 190,19 Q 193,20 193,22 L 193,98 Q 193,100 190,101 L 102,114.9 Q 102,115 100,115 98,115 98,114.9 L 10,101 Q 7,100 7,98" style="fill :#003ABD; stroke :none;"/>
	<path id="number" d="M 76.96,94.18 V 36.97 L 67.35,43.99 V 33.74 L 76.96,26.77 H 86.66 V 94.18 H 76.96 z M 99.31,63.06 117.4,26.86 H 128.2 L 114,55.35 H 114.2 Q 116.3,54.47 119.3,54.47 125.6,54.47 130.5,58.95 135.4,63.48 135.4,73.27 135.4,84.9 129.2,89.89 123,94.83 115.5,94.83 108.4,94.83 102.5,89.38 96.72,83.93 96.72,74.33 96.72,68.19 99.31,63.06 z M 116.1,63.06 Q 112,63.06 109.2,65.74 106.4,68.56 106.4,74.14 106.4,85.23 116.1,85.23 119.4,85.23 122.6,82.69 125.7,80.19 125.7,74.14 125.7,68.51 122.9,65.74 120.1,63.06 116.1,63.06 z" style="fill :#FFFFFF; fill-rule :evenodd; stroke :none;"/>
</svg>