<?xml version="1.0" encoding="UTF-8" standalone="no"?>
<svg xmlns:svg="http://www.w3.org/2000/svg" xmlns="http://www.w3.org/2000/svg" version="1.1" width="400px" height="240px" viewBox="0 0 200 120">
	<defs/>
	<rect id="border" x="0.25" y="0.25" rx="10" ry="10" width="199.5" height="119.5" style="fill :#FFFFFF;stroke :#000000;stroke-width :0.50"/>
	<path id="blueback" d="M 7,60 7,22 Q 7,20 10,19 L 98,5.1 Q 98,5 100,5 102,5 102,5.1 L 190,19 Q 193,20 193,22 L 193,98 Q 193,100 190,101 L 102,114.9 Q 102,115 100,115 98,115 98,114.9 L 10,101 Q 7,100 7,98" style="fill :#003ABD; stroke :none"/>
	<path id="number" d="M 76.96,94.18 V 36.97 L 67.35,43.99 V 33.74 L 76.96,26.77 H 86.66 V 94.18 H 76.96 z M 132.8,58.08 114.7,94.28 H 103.9 L 118.1,65.79 H 118 Q 115.7,66.66 112.8,66.66 106.4,66.66 101.6,62.19 96.72,57.75 96.72,47.87 96.72,36.28 102.9,31.29 109.1,26.26 116.6,26.26 123.6,26.26 129.6,31.8 135.4,37.34 135.4,46.86 135.4,53 132.8,58.08 z M 116.1,58.08 Q 120.1,58.08 122.9,55.4 125.7,52.81 125.7,47.04 125.7,35.91 116.1,35.91 112.7,35.91 109.6,38.45 106.4,41.04 106.4,47.04 106.4,52.77 109.2,55.4 112,58.08 116.1,58.08 z" style="fill :#FFFFFF; fill-rule :evenodd; stroke :none"/>
</svg>