<?xml version="1.0" encoding="UTF-8" standalone="no"?>
<svg xmlns:svg="http://www.w3.org/2000/svg" xmlns="http://www.w3.org/2000/svg" version="1.1" width="400px" height="240px" viewBox="0 0 200 120">
	<defs/>
	<rect x="0.25" y="0.25" rx="10" ry="10" width="199.5" height="119.5" style="fill :#FFFFFF;stroke :#000000;stroke-width :0.50"/>
    <path d="M 7,60 7,22 Q 7,20 10,19 L 98,5.1 Q 98,5 100,5 102,5 102,5.1 L 190,19 Q 193,20 193,22 L 193,98 Q 193,100 190,101 L 102,114.9 Q 102,115 100,115 98,115 98,114.9 L 10,101 Q 7,100 7,98" style="fill :#003ABD; stroke :none"/>
    <path d="M 80.4,94.05 V 85 L 106.7,52.07 Q 108.2,50.13 108.7,48.52 109.2,46.9 109.2,45.38 109.2,41.87 106.7,38.87 104.2,35.87 99.88,35.82 95.96,35.82 93.19,38.41 90.42,40.99 90.05,45.56 H 80.4 Q 80.44,37.39 85.99,31.8 91.53,26.22 99.15,26.17 107.5,26.17 113.1,31.8 118.7,37.44 118.8,45.47 118.8,52.3 114.8,57.29 L 93.1,84.44 H 118.8 V 94.05 H 80.4 z" style="fill :#FFFFFF; fill-rule :evenodd; stroke :none"/>
</svg>