<?xml version="1.0" encoding="UTF-8" standalone="no"?>
<svg xmlns:svg="http://www.w3.org/2000/svg" xmlns="http://www.w3.org/2000/svg" version="1.1" width="400px" height="240px" viewBox="0 0 200 120">
	<defs/>
	<rect id="border" x="0.25" y="0.25" rx="10" ry="10" width="199.5" height="119.5" style="fill :#FFFFFF;stroke :#000000;stroke-width :0.50"/>
    <path id="blueback" d="M 7,60 7,22 Q 7,20 10,19 L 98,5.1 Q 98,5 100,5 102,5 102,5.1 L 190,19 Q 193,20 193,22 L 193,98 Q 193,100 190,101 L 102,114.9 Q 102,115 100,115 98,115 98,114.9 L 10,101 Q 7,100 7,98" style="fill :#003ABD; stroke :none"/>
    <path id="number" d="M 57.7,94.05 V 85 L 84.02,52.07 Q 85.55,50.13 86.01,48.52 86.47,46.9 86.47,45.38 86.47,41.87 83.98,38.87 81.48,35.87 77.19,35.82 73.26,35.82 70.49,38.41 67.72,40.99 67.35,45.56 H 57.7 Q 57.75,37.39 63.29,31.8 68.83,26.22 76.45,26.17 84.85,26.17 90.44,31.8 96.03,37.44 96.08,45.47 96.08,52.3 92.06,57.29 L 70.4,84.44 H 96.08 V 94.05 H 57.7 z M 132.2,74.7 V 46.12 Q 132.2,41.27 129.6,38.54 127.1,35.82 122.8,35.82 118.5,35.82 115.9,38.54 113.3,41.27 113.3,46.12 V 74.7 Q 113.3,79.59 115.9,82.27 118.5,84.95 122.8,85 127,85 129.6,82.32 132.2,79.64 132.2,74.7 z M 103.6,75.25 V 45.56 Q 103.6,36.28 109.5,31.25 115.3,26.22 122.8,26.17 130.2,26.17 136,31.2 141.8,36.24 141.9,45.56 V 75.25 Q 141.9,84.53 136.1,89.57 130.2,94.6 122.8,94.6 115.3,94.6 109.5,89.57 103.6,84.53 103.6,75.25 z" style="fill :#FFFFFF; fill-rule :evenodd; stroke :none"/>
</svg>