<?xml version="1.0" encoding="UTF-8" standalone="no"?>
<!DOCTYPE svg PUBLIC "-//W3C//DTD SVG 1.1//EN" "http://www.w3.org/Graphics/SVG/1.1/DTD/svg11.dtd">
<svg xmlns:svg="http://www.w3.org/2000/svg" xmlns="http://www.w3.org/2000/svg" version="1.1" width="400px" height="240px" viewBox="0 0 200 120">
	<defs/>
	<rect id="border" style="fill :#FFFFFF; fill-rule :evenodd; stroke :#000000; stroke-width :0.50;" x="0.25" y="0.25" rx="10" ry="10" width="199.5" height="119.5"/>
    <path id="blueback" style="fill :#003ABD; fill-rule :evenodd; stroke :none;" d="M 7,60 7,22 Q 7,20 10,19 L 98,5.1 Q 98,5 100,5 102,5 102,5.1 L 190,19 Q 193,20 193,22 L 193,98 Q 193,100 190,101 L 102,114.9 Q 102,115 100,115 98,115 98,114.9 L 10,101 Q 7,100 7,98"/>
    <path id="number210" style="fill :#FFFFFF; fill-rule :evenodd; stroke :none;" d="M 41.75,94.05 V 85 L 68.07,52.07 Q 69.59,50.13 70.06,48.52 70.52,46.9 70.52,45.38 70.52,41.87 68.02,38.87 65.53,35.87 61.24,35.82 57.31,35.82 54.54,38.41 51.77,40.99 51.4,45.56 H 41.75 Q 41.8,37.39 47.34,31.8 52.88,26.22 60.5,26.17 68.9,26.17 74.49,31.8 80.08,37.44 80.12,45.47 80.12,52.3 76.1,57.29 L 54.45,84.44 H 80.12 V 94.05 H 41.75 z M 99.93,94.18 V 36.97 L 90.33,43.99 V 33.74 L 99.93,26.77 H 109.6 V 94.18 H 99.93 z M 148.2,74.7 V 46.12 Q 148.2,41.27 145.6,38.54 143,35.82 138.7,35.82 134.4,35.82 131.8,38.54 129.3,41.27 129.3,46.12 V 74.7 Q 129.3,79.59 131.8,82.27 134.4,84.95 138.7,85 143,85 145.6,82.32 148.1,79.64 148.2,74.7 z M 119.6,75.25 V 45.56 Q 119.6,36.28 125.4,31.25 131.2,26.22 138.7,26.17 146.2,26.17 152,31.2 157.8,36.24 157.8,45.56 V 75.25 Q 157.8,84.53 152,89.57 146.2,94.6 138.7,94.6 131.2,94.6 125.4,89.57 119.6,84.53 119.6,75.25 z"/>
</svg>