<?xml version="1.0" encoding="UTF-8" standalone="no"?>
<!DOCTYPE svg PUBLIC "-//W3C//DTD SVG 1.1//EN" "http://www.w3.org/Graphics/SVG/1.1/DTD/svg11.dtd">
<svg xmlns:svg="http://www.w3.org/2000/svg" xmlns="http://www.w3.org/2000/svg" version="1.1" width="400px" height="240px" viewBox="0 0 200 120">
	<defs/>
	<rect id="border" style="fill :#FFFFFF; fill-rule :evenodd; stroke :#000000; stroke-width :0.50;" x="0.25" y="0.25" rx="10" ry="10" width="199.5" height="119.5"/>
    <path id="blueback" style="fill :#003ABD; fill-rule :evenodd; stroke :none;" d="M 7,60 7,22 Q 7,20 10,19 L 98,5.1 Q 98,5 100,5 102,5 102,5.1 L 190,19 Q 193,20 193,22 L 193,98 Q 193,100 190,101 L 102,114.9 Q 102,115 100,115 98,115 98,114.9 L 10,101 Q 7,100 7,98"/>
    <path id="number215" style="fill :#FFFFFF; fill-rule :evenodd; stroke :none;" d="M 41.75,94.05 V 85 L 68.07,52.07 Q 69.59,50.13 70.06,48.52 70.52,46.9 70.52,45.38 70.52,41.87 68.02,38.87 65.53,35.87 61.24,35.82 57.31,35.82 54.54,38.41 51.77,40.99 51.4,45.56 H 41.75 Q 41.8,37.39 47.34,31.8 52.88,26.22 60.5,26.17 68.9,26.17 74.49,31.8 80.08,37.44 80.12,45.47 80.12,52.3 76.1,57.29 L 54.45,84.44 H 80.12 V 94.05 H 41.75 z M 99.93,94.18 V 36.97 L 90.33,43.99 V 33.74 L 99.93,26.77 H 109.6 V 94.18 H 99.93 z M 120.8,63.16 V 26.77 H 156.6 V 36.42 H 129.9 V 51.61 Q 134.5,47.92 140.6,47.92 144.4,47.92 147.6,49.39 150.7,50.87 152.6,52.86 155.4,55.86 156.6,59.37 157.9,62.88 157.9,71.28 157.9,78.07 157,81.35 156,84.63 153.8,87.44 151.7,90.08 148,92.34 144.2,94.6 139.2,94.6 132.7,94.6 126.6,90.58 120.6,86.57 119.5,77.15 H 129.2 Q 130.9,85 138.8,85 145.9,85 147.1,80.15 148.3,75.3 148.3,70.54 148.3,64.96 146.4,61.26 144.5,57.57 138.5,57.57 132.9,57.57 129.9,63.16 H 120.8 z"/>
</svg>