<?xml version="1.0" encoding="UTF-8" standalone="no"?>
<svg xmlns:svg="http://www.w3.org/2000/svg" xmlns="http://www.w3.org/2000/svg" version="1.1" width="400px" height="240px" viewBox="0 0 200 120">
	<defs/>
	<rect id="border" x="0.25" y="0.25" rx="10" ry="10" width="199.5" height="119.5" style="fill :#FFFFFF;stroke :#000000;stroke-width :0.50"/>
    <path id="blueback" d="M 7,60 7,22 Q 7,20 10,19 L 98,5.1 Q 98,5 100,5 102,5 102,5.1 L 190,19 Q 193,20 193,22 L 193,98 Q 193,100 190,101 L 102,114.9 Q 102,115 100,115 98,115 98,114.9 L 10,101 Q 7,100 7,98" style="fill :#003ABD; stroke :none"/>
    <path id="number" d="M 57.7,94.05 V 85 L 84.02,52.07 Q 85.55,50.13 86.01,48.52 86.47,46.9 86.47,45.38 86.47,41.87 83.98,38.87 81.48,35.87 77.19,35.82 73.26,35.82 70.49,38.41 67.72,40.99 67.35,45.56 H 57.7 Q 57.75,37.39 63.29,31.8 68.83,26.22 76.45,26.17 84.85,26.17 90.44,31.8 96.03,37.44 96.08,45.47 96.08,52.3 92.06,57.29 L 70.4,84.44 H 96.08 V 94.05 H 57.7 z M 116.7,63.62 V 55.12 H 120 Q 124.8,55.12 127.6,52.44 130.4,49.76 130.4,45.56 130.4,41.45 127.5,38.64 124.6,35.82 120.6,35.82 117.5,35.82 114.8,37.85 112.1,39.88 111.3,43.95 H 101.7 Q 102.2,36.84 107.6,31.53 113,26.22 120.2,26.17 129.2,26.17 134.6,32.08 140,37.99 140.1,45.38 140.1,49.26 138.6,52.9 137,56.55 132.9,59.28 137.1,62 139,65.97 140.8,69.94 140.8,74.01 140.8,83.43 134.9,89.01 129,94.6 120.4,94.6 113.6,94.6 108.1,90.21 102.7,85.83 101.3,77.33 H 110.9 Q 112.3,80.79 114.5,82.87 116.8,84.95 121,85 125,85 128.1,82.18 131.2,79.36 131.2,74.33 131.2,69.3 128.1,66.48 125.1,63.66 120.8,63.62 H 116.7 z" style="fill :#FFFFFF; fill-rule :evenodd; stroke :none"/>
</svg>