<?xml version="1.0" encoding="UTF-8" standalone="no"?>
<svg xmlns:svg="http://www.w3.org/2000/svg" xmlns="http://www.w3.org/2000/svg" version="1.1" width="400px" height="240px" viewBox="0 0 200 120">
	<defs/>
	<rect id="border" x="0.25" y="0.25" rx="10" ry="10" width="199.5" height="119.5" style="fill :#FFFFFF;stroke :#000000;stroke-width :0.50"/>
    <path id="blueback" d="M 7,60 7,22 Q 7,20 10,19 L 98,5.1 Q 98,5 100,5 102,5 102,5.1 L 190,19 Q 193,20 193,22 L 193,98 Q 193,100 190,101 L 102,114.9 Q 102,115 100,115 98,115 98,114.9 L 10,101 Q 7,100 7,98" style="fill :#003ABD; stroke :none"/>
    <path id="number" d="M 57.7,94.05 V 85 L 84.02,52.07 Q 85.55,50.13 86.01,48.52 86.47,46.9 86.47,45.38 86.47,41.87 83.98,38.87 81.48,35.87 77.19,35.82 73.26,35.82 70.49,38.41 67.72,40.99 67.35,45.56 H 57.7 Q 57.75,37.39 63.29,31.8 68.83,26.22 76.45,26.17 84.85,26.17 90.44,31.8 96.03,37.44 96.08,45.47 96.08,52.3 92.06,57.29 L 70.4,84.44 H 96.08 V 94.05 H 57.7 z M 104.8,63.16 V 26.77 H 140.6 V 36.42 H 113.9 V 51.61 Q 118.5,47.92 124.7,47.92 128.5,47.92 131.6,49.39 134.8,50.87 136.7,52.86 139.4,55.86 140.7,59.37 141.9,62.88 142,71.28 142,78.07 141,81.35 140,84.63 137.8,87.44 135.7,90.08 132,92.34 128.3,94.6 123.2,94.6 116.7,94.6 110.7,90.58 104.6,86.57 103.6,77.15 H 113.2 Q 114.9,85 122.9,85 129.9,85 131.1,80.15 132.3,75.3 132.3,70.54 132.3,64.96 130.4,61.26 128.5,57.57 122.6,57.57 117,57.57 113.9,63.16 H 104.8 z" style="fill :#FFFFFF; fill-rule :evenodd; stroke :none"/>
</svg>