<?xml version="1.0" encoding="UTF-8" standalone="no"?>
<svg xmlns:svg="http://www.w3.org/2000/svg" xmlns="http://www.w3.org/2000/svg" version="1.1" width="400px" height="240px" viewBox="0 0 200 120">
	<defs/>
	<rect id="border" x="0.25" y="0.25" rx="10" ry="10" width="199.5" height="119.5" style="fill :#FFFFFF;stroke :#000000;stroke-width :0.50"/>
    <path id="blueback" d="M 7,60 7,22 Q 7,20 10,19 L 98,5.1 Q 98,5 100,5 102,5 102,5.1 L 190,19 Q 193,20 193,22 L 193,98 Q 193,100 190,101 L 102,114.9 Q 102,115 100,115 98,115 98,114.9 L 10,101 Q 7,100 7,98" style="fill :#003ABD; stroke :none"/>
    <path id="number" d="M 57.7,94.05 V 85 L 84.02,52.07 Q 85.55,50.13 86.01,48.52 86.47,46.9 86.47,45.38 86.47,41.87 83.98,38.87 81.48,35.87 77.19,35.82 73.26,35.82 70.49,38.41 67.72,40.99 67.35,45.56 H 57.7 Q 57.75,37.39 63.29,31.8 68.83,26.22 76.45,26.17 84.85,26.17 90.44,31.8 96.03,37.44 96.08,45.47 96.08,52.3 92.06,57.29 L 70.4,84.44 H 96.08 V 94.05 H 57.7 z M 113.1,45.47 Q 113.1,50.23 116.1,52.67 119,55.12 122.8,55.12 126.5,55.12 129.4,52.67 132.4,50.23 132.4,45.47 132.4,40.76 129.5,38.31 126.5,35.87 122.8,35.82 119.1,35.82 116.1,38.27 113.2,40.71 113.1,45.47 z M 102.3,74.42 Q 102.3,64.59 110.2,59.28 107.2,56.6 105.4,53.37 103.5,50.13 103.5,45.65 103.5,37.53 109,31.85 114.5,26.17 122.8,26.17 130.9,26.17 136.5,31.85 142,37.53 142.1,45.65 142.1,50.09 140.2,53.32 138.3,56.55 135.4,59.28 143.3,64.63 143.3,74.42 143.3,83.38 137.2,88.97 131.2,94.55 122.8,94.6 114.4,94.6 108.3,89.01 102.3,83.43 102.3,74.42 z M 111.9,74.33 Q 111.9,78.95 115.1,81.95 118.4,84.95 122.8,85 127.1,85 130.3,81.99 133.6,78.99 133.7,74.33 133.7,69.71 130.4,66.66 127.1,63.62 122.8,63.62 118.4,63.62 115.2,66.66 112,69.71 111.9,74.33 z" style="fill :#FFFFFF; fill-rule :evenodd; stroke :none"/>
</svg>