<?xml version="1.0" encoding="UTF-8" standalone="no"?>
<svg xmlns:svg="http://www.w3.org/2000/svg" xmlns="http://www.w3.org/2000/svg" version="1.1" width="400px" height="240px" viewBox="0 0 200 120">
	<defs/>
	<rect id="border" x="0.25" y="0.25" rx="10" ry="10" width="199.5" height="119.5" style="fill :#FFFFFF;stroke :#000000;stroke-width :0.50"/>
    <path id="blueback" d="M 7,60 7,22 Q 7,20 10,19 L 98,5.1 Q 98,5 100,5 102,5 102,5.1 L 190,19 Q 193,20 193,22 L 193,98 Q 193,100 190,101 L 102,114.9 Q 102,115 100,115 98,115 98,114.9 L 10,101 Q 7,100 7,98" style="fill :#003ABD; stroke :none"/>
    <path id="number" d="M 57.43,94.05 V 85 L 83.75,52.07 Q 85.27,50.13 85.73,48.52 86.19,46.9 86.19,45.38 86.19,41.87 83.7,38.87 81.21,35.87 76.91,35.82 72.99,35.82 70.22,38.41 67.45,40.99 67.08,45.56 H 57.43 Q 57.47,37.39 63.01,31.8 68.55,26.22 76.17,26.17 84.58,26.17 90.16,31.8 95.75,37.44 95.8,45.47 95.8,52.3 91.78,57.29 L 70.12,84.44 H 95.8 V 94.05 H 57.43 z M 139.6,58.08 121.5,94.28 H 110.7 L 124.9,65.79 H 124.7 Q 122.4,66.66 119.6,66.66 113.1,66.66 108.3,62.19 103.5,57.75 103.5,47.87 103.5,36.28 109.6,31.29 115.8,26.26 123.4,26.26 130.4,26.26 136.3,31.8 142.2,37.34 142.2,46.86 142.2,53 139.6,58.08 z M 122.8,58.08 Q 126.8,58.08 129.6,55.4 132.5,52.81 132.5,47.04 132.5,35.91 122.8,35.91 119.4,35.91 116.3,38.45 113.1,41.04 113.1,47.04 113.1,52.77 115.9,55.4 118.7,58.08 122.8,58.08 z" style="fill :#FFFFFF; fill-rule :evenodd; stroke :none"/>
</svg>