<?xml version="1.0" encoding="UTF-8" standalone="no"?>
<svg xmlns:svg="http://www.w3.org/2000/svg" xmlns="http://www.w3.org/2000/svg" version="1.1" width="400px" height="240px" viewBox="0 0 200 120">
	<defs/>
	<rect id="border" x="0.25" y="0.25" rx="10" ry="10" width="199.5" height="119.5" style="fill :#FFFFFF;stroke :#000000;stroke-width :0.50"/>
    <path id="blueback" d="M 7,60 7,22 Q 7,20 10,19 L 98,5.1 Q 98,5 100,5 102,5 102,5.1 L 190,19 Q 193,20 193,22 L 193,98 Q 193,100 190,101 L 102,114.9 Q 102,115 100,115 98,115 98,114.9 L 10,101 Q 7,100 7,98" style="fill :#003ABD; stroke :none"/>
    <path id="number" d="M 94.02,63.62 V 55.12 H 97.34 Q 102.1,55.12 104.9,52.44 107.7,49.76 107.7,45.56 107.7,41.45 104.8,38.64 101.9,35.82 97.9,35.82 94.85,35.82 92.13,37.85 89.4,39.88 88.62,43.95 H 78.97 Q 79.52,36.84 84.92,31.53 90.33,26.22 97.53,26.17 106.5,26.17 111.9,32.08 117.3,37.99 117.4,45.38 117.4,49.26 115.9,52.9 114.3,56.55 110.2,59.28 114.4,62 116.3,65.97 118.1,69.94 118.1,74.01 118.1,83.43 112.2,89.01 106.3,94.6 97.71,94.6 90.88,94.6 85.43,90.21 79.98,85.83 78.6,77.33 H 88.25 Q 89.59,80.79 91.85,82.87 94.11,84.95 98.27,85 102.3,85 105.4,82.18 108.5,79.36 108.5,74.33 108.5,69.3 105.4,66.48 102.4,63.66 98.08,63.62 H 94.02 z" style="fill :#FFFFFF; fill-rule :evenodd; stroke :none"/>
</svg>