<?xml version="1.0" encoding="UTF-8" standalone="no"?>
<svg xmlns:svg="http://www.w3.org/2000/svg" xmlns="http://www.w3.org/2000/svg" version="1.1" width="400px" height="240px" viewBox="0 0 200 120">
	<defs/>
	<rect id="border" x="0.25" y="0.25" rx="10" ry="10" width="199.5" height="119.5" style="fill :#FFFFFF;stroke :#000000;stroke-width :0.50"/>
	<path id="blueback" style="fill :#003ABD; stroke :none;" d="M 7,60 7,22 Q 7,20 10,19 L 98,5.1 Q 98,5 100,5 102,5 102,5.1 L 190,19 Q 193,20 193,22 L 193,98 Q 193,100 190,101 L 102,114.9 Q 102,115 100,115 98,115 98,114.9 L 10,101 Q 7,100 7,98"/>
	<path id="Nr31" style="fill :#FFFFFF; fill-rule :evenodd; stroke :none;" d="M 78.07,63.62 V 55.12 H 81.39 Q 86.19,55.12 88.96,52.44 91.73,49.76 91.78,45.56 91.78,41.45 88.87,38.64 85.96,35.82 81.95,35.82 78.9,35.82 76.17,37.85 73.45,39.88 72.66,43.95 H 63.01 Q 63.57,36.84 68.97,31.53 74.37,26.22 81.58,26.17 90.58,26.17 95.98,32.08 101.4,37.99 101.4,45.38 101.4,49.26 99.91,52.9 98.38,56.55 94.23,59.28 98.48,62 100.3,65.97 102.2,69.94 102.2,74.01 102.2,83.43 96.26,89.01 90.35,94.6 81.76,94.6 74.93,94.6 69.48,90.21 64.03,85.83 62.64,77.33 H 72.29 Q 73.63,80.79 75.9,82.87 78.16,84.95 82.31,85 86.33,85 89.43,82.18 92.52,79.36 92.52,74.33 92.52,69.3 89.47,66.48 86.42,63.66 82.13,63.62 H 78.07 z M 122.6,94.18 V 36.97 L 113,43.99 V 33.74 L 122.6,26.77 H 132.3 V 94.18 H 122.6 z"/>
</svg>