<?xml version="1.0" encoding="UTF-8" standalone="no"?>
<!DOCTYPE svg PUBLIC "-//W3C//DTD SVG 1.1//EN" "http://www.w3.org/Graphics/SVG/1.1/DTD/svg11.dtd">
<svg xmlns:svg="http://www.w3.org/2000/svg" xmlns="http://www.w3.org/2000/svg" version="1.1" width="400px" height="240px" viewBox="0 0 200 120">
	<defs/>
	<rect id="border" style="fill :#FFFFFF; fill-rule :evenodd; stroke :#000000; stroke-width :0.50;" x="0.25" y="0.25" rx="10" ry="10" width="199.5" height="119.5"/>
    <path id="blueback" style="fill :#003ABD; fill-rule :evenodd; stroke :none;" d="M 7,60 7,22 Q 7,20 10,19 L 98,5.1 Q 98,5 100,5 102,5 102,5.1 L 190,19 Q 193,20 193,22 L 193,98 Q 193,100 190,101 L 102,114.9 Q 102,115 100,115 98,115 98,114.9 L 10,101 Q 7,100 7,98"/>
    <path id="number369" style="fill :#FFFFFF; fill-rule :evenodd; stroke :none;" d="M 48.08,63.62 V 55.12 H 51.4 Q 56.2,55.12 58.97,52.44 61.74,49.76 61.79,45.56 61.79,41.45 58.88,38.64 55.97,35.82 51.95,35.82 48.91,35.82 46.18,37.85 43.46,39.88 42.67,43.95 H 33.02 Q 33.58,36.84 38.98,31.53 44.38,26.22 51.59,26.17 60.59,26.17 65.99,32.08 71.39,37.99 71.44,45.38 71.44,49.26 69.92,52.9 68.39,56.55 64.24,59.28 68.49,62 70.33,65.97 72.18,69.94 72.18,74.01 72.18,83.43 66.27,89.01 60.36,94.6 51.77,94.6 44.94,94.6 39.49,90.21 34.04,85.83 32.65,77.33 H 42.3 Q 43.64,80.79 45.91,82.87 48.17,84.95 52.32,85 56.34,85 59.44,82.18 62.53,79.36 62.53,74.33 62.53,69.3 59.48,66.48 56.43,63.66 52.14,63.62 H 48.08 z M 83.08,63.06 101.2,26.86 H 111.9 L 97.76,55.35 H 97.95 Q 100.1,54.47 103.1,54.47 109.4,54.47 114.3,58.95 119.2,63.48 119.2,73.27 119.2,84.9 113,89.89 106.8,94.83 99.28,94.83 92.13,94.83 86.31,89.38 80.49,83.93 80.49,74.33 80.49,68.19 83.08,63.06 z M 99.84,63.06 Q 95.73,63.06 92.96,65.74 90.14,68.56 90.14,74.14 90.14,85.23 99.84,85.23 103.2,85.23 106.3,82.69 109.5,80.19 109.5,74.14 109.5,68.51 106.7,65.74 103.9,63.06 99.84,63.06 z M 162.5,58.08 144.4,94.28 H 133.6 L 147.9,65.79 H 147.7 Q 145.4,66.66 142.6,66.66 136.1,66.66 131.3,62.19 126.4,57.75 126.4,47.87 126.4,36.28 132.6,31.29 138.8,26.26 146.3,26.26 153.4,26.26 159.3,31.8 165.1,37.34 165.1,46.86 165.1,53 162.5,58.08 z M 145.8,58.08 Q 149.8,58.08 152.6,55.4 155.4,52.81 155.4,47.04 155.4,35.91 145.8,35.91 142.4,35.91 139.3,38.45 136.1,41.04 136.1,47.04 136.1,52.77 138.9,55.4 141.7,58.08 145.8,58.08 z"/>
</svg>