<?xml version="1.0" encoding="UTF-8" standalone="no"?>
<!DOCTYPE svg PUBLIC "-//W3C//DTD SVG 1.1//EN" "http://www.w3.org/Graphics/SVG/1.1/DTD/svg11.dtd">
<svg xmlns:svg="http://www.w3.org/2000/svg" xmlns="http://www.w3.org/2000/svg" version="1.1" width="400px" height="240px" viewBox="0 0 200 120">
	<defs/>
	<rect id="border" x="0.25" y="0.25" rx="10" ry="10" width="199.5" height="119.5" style="fill :#FFFFFF;stroke :#000000;stroke-width :0.50"/>
	<path id="blueback" style="fill :#003ABD; stroke :none;" d="M 7,60 7,22 Q 7,20 10,19 L 98,5.1 Q 98,5 100,5 102,5 102,5.1 L 190,19 Q 193,20 193,22 L 193,98 Q 193,100 190,101 L 102,114.9 Q 102,115 100,115 98,115 98,114.9 L 10,101 Q 7,100 7,98"/>
	<path id="Nr37" style="fill :#FFFFFF; fill-rule :evenodd; stroke :none;" d="M 71.33,63.62 V 55.12 H 74.65 Q 79.45,55.12 82.22,52.44 84.99,49.76 85.04,45.56 85.04,41.45 82.13,38.64 79.22,35.82 75.2,35.82 72.16,35.82 69.43,37.85 66.71,39.88 65.92,43.95 H 56.27 Q 56.83,36.84 62.23,31.53 67.63,26.22 74.83,26.17 83.84,26.17 89.24,32.08 94.64,37.99 94.69,45.38 94.69,49.26 93.17,52.9 91.64,56.55 87.49,59.28 91.73,62 93.58,65.97 95.43,69.94 95.43,74.01 95.43,83.43 89.52,89.01 83.61,94.6 75.02,94.6 68.19,94.6 62.74,90.21 57.29,85.83 55.9,77.33 H 65.55 Q 66.89,80.79 69.16,82.87 71.42,84.95 75.57,85 79.59,85 82.68,82.18 85.78,79.36 85.78,74.33 85.78,69.3 82.73,66.48 79.68,63.66 75.39,63.62 H 71.33 z M 104.9,46.12 V 26.77 H 143.2 V 36.42 L 120.4,94.05 H 109.6 L 132.4,36.42 H 114.5 V 46.12 H 104.9 z"/>
</svg>