<?xml version="1.0" encoding="UTF-8" standalone="no"?>
<!DOCTYPE svg PUBLIC "-//W3C//DTD SVG 1.1//EN" "http://www.w3.org/Graphics/SVG/1.1/DTD/svg11.dtd">
<svg xmlns:svg="http://www.w3.org/2000/svg" xmlns="http://www.w3.org/2000/svg" version="1.1" width="400px" height="240px" viewBox="0 0 200 120">
	<defs/>
	<rect id="border" x="0.25" y="0.25" rx="10" ry="10" width="199.5" height="119.5" style="fill :#FFFFFF;stroke :#000000;stroke-width :0.50"/>
	<path id="blueback" style="fill :#003ABD; stroke :none;" d="M 7,60 7,22 Q 7,20 10,19 L 98,5.1 Q 98,5 100,5 102,5 102,5.1 L 190,19 Q 193,20 193,22 L 193,98 Q 193,100 190,101 L 102,114.9 Q 102,115 100,115 98,115 98,114.9 L 10,101 Q 7,100 7,98"/>
	<path id="Nr44" style="fill :#FFFFFF; fill-rule :evenodd; stroke :none;" d="M 55.81,84.07 V 74.98 L 78.34,26.77 H 89.1 L 66.34,74.98 H 83.88 V 55.58 H 93.54 V 74.98 H 98.94 V 84.07 H 93.54 V 94.05 H 83.88 V 84.07 H 55.81 z M 101.2,84.07 V 74.98 L 123.7,26.77 H 134.5 L 111.7,74.98 H 129.3 V 55.58 H 138.9 V 74.98 H 144.3 V 84.07 H 138.9 V 94.05 H 129.3 V 84.07 H 101.2 z"/>
</svg>