<?xml version="1.0" encoding="UTF-8" standalone="no"?>
<!DOCTYPE svg PUBLIC "-//W3C//DTD SVG 1.1//EN" "http://www.w3.org/Graphics/SVG/1.1/DTD/svg11.dtd">
<svg xmlns:svg="http://www.w3.org/2000/svg" xmlns="http://www.w3.org/2000/svg" version="1.1" width="400px" height="240px" viewBox="0 0 200 120">
	<defs/>
	<rect id="border" style="fill :#FFFFFF; fill-rule :evenodd; stroke :#000000; stroke-width :0.50;" x="0.25" y="0.25" rx="10" ry="10" width="199.5" height="119.5"/>
    <path id="blueback" style="fill :#003ABD; fill-rule :evenodd; stroke :none;" d="M 7,60 7,22 Q 7,20 10,19 L 98,5.1 Q 98,5 100,5 102,5 102,5.1 L 190,19 Q 193,20 193,22 L 193,98 Q 193,100 190,101 L 102,114.9 Q 102,115 100,115 98,115 98,114.9 L 10,101 Q 7,100 7,98"/>
    <path id="number448" style="fill :#FFFFFF; fill-rule :evenodd; stroke :none;" d="M 33.12,84.07 33.12,74.98 55.65,26.77 66.41,26.77 43.64,74.98 61.19,74.98 61.19,55.58 70.84,55.58 70.84,74.98 76.24,74.98 76.24,84.07 70.84,84.07 70.84,94.05 61.19,94.05 61.19,84.07 z M 78.51,84.07 78.51,74.98 101,26.77 111.8,26.77 89.03,74.98 106.6,74.98 106.6,55.58 116.2,55.58 116.2,74.98 121.6,74.98 121.6,84.07 116.2,84.07 116.2,94.05 106.6,94.05 106.6,84.07 z M 134.1,44.67 C 134.1,47.84 135.1,50.24 137.1,51.87 139,53.5 141.3,54.32 143.8,54.32 146.2,54.32 148.4,53.5 150.4,51.87 152.4,50.24 153.4,47.84 153.4,44.67 153.4,41.53 152.4,39.14 150.4,37.51 148.5,35.88 146.2,35.05 143.8,35.02 141.3,35.02 139.1,35.83 137.1,37.47 135.1,39.1 134.1,41.5 134.1,44.67 z M 123.2,73.62 C 123.2,67.06 125.9,62.02 131.2,58.48 129.2,56.69 127.6,54.72 126.3,52.56 125.1,50.41 124.5,47.84 124.4,44.85 124.4,39.44 126.3,34.83 130,31.05 133.7,27.26 138.3,25.37 143.8,25.37 149.2,25.37 153.8,27.26 157.5,31.05 161.2,34.83 163,39.44 163.1,44.85 163.1,47.81 162.4,50.36 161.2,52.52 159.9,54.67 158.3,56.66 156.4,58.48 161.6,62.05 164.3,67.09 164.3,73.62 164.3,79.59 162.2,84.44 158.2,88.17 154.2,91.89 149.4,93.77 143.7,93.8 138.1,93.8 133.3,91.94 129.3,88.21 125.3,84.49 123.2,79.62 123.2,73.62 z M 132.9,73.53 C 132.9,76.61 134,79.15 136.1,81.15 138.3,83.15 140.8,84.16 143.8,84.19 146.6,84.19 149.1,83.19 151.3,81.19 153.5,79.19 154.6,76.64 154.6,73.53 154.6,70.45 153.6,67.89 151.4,65.86 149.2,63.83 146.6,62.82 143.8,62.82 140.9,62.82 138.3,63.83 136.2,65.86 134,67.89 132.9,70.45 132.9,73.53 z"/>
</svg>