<?xml version="1.0" encoding="UTF-8" standalone="no"?>
<!DOCTYPE svg PUBLIC "-//W3C//DTD SVG 1.1//EN" "http://www.w3.org/Graphics/SVG/1.1/DTD/svg11.dtd">
<svg xmlns:svg="http://www.w3.org/2000/svg" xmlns="http://www.w3.org/2000/svg" version="1.1" width="400px" height="240px" viewBox="0 0 200 120">
	<defs/>
	<rect id="border" x="0.25" y="0.25" rx="10" ry="10" width="199.5" height="119.5" style="fill :#FFFFFF;stroke :#000000;stroke-width :0.50"/>
	<path id="blueback" style="fill :#003ABD; stroke :none;" d="M 7,60 7,22 Q 7,20 10,19 L 98,5.1 Q 98,5 100,5 102,5 102,5.1 L 190,19 Q 193,20 193,22 L 193,98 Q 193,100 190,101 L 102,114.9 Q 102,115 100,115 98,115 98,114.9 L 10,101 Q 7,100 7,98"/>
	<path id="Nr45" style="fill :#FFFFFF; fill-rule :evenodd; stroke :none;" d="M 55.81,84.07 V 74.98 L 78.34,26.77 H 89.1 L 66.34,74.98 H 83.88 V 55.58 H 93.54 V 74.98 H 98.94 V 84.07 H 93.54 V 94.05 H 83.88 V 84.07 H 55.81 z M 104.8,63.16 V 26.77 H 140.6 V 36.42 H 113.9 V 51.61 Q 118.5,47.92 124.7,47.92 128.5,47.92 131.6,49.39 134.8,50.87 136.7,52.86 139.4,55.86 140.7,59.37 141.9,62.88 142,71.28 142,78.07 141,81.35 140,84.63 137.8,87.44 135.7,90.08 132,92.34 128.3,94.6 123.2,94.6 116.7,94.6 110.7,90.58 104.6,86.57 103.6,77.15 H 113.2 Q 114.9,85 122.9,85 129.9,85 131.1,80.15 132.3,75.3 132.3,70.54 132.3,64.96 130.4,61.26 128.5,57.57 122.6,57.57 117,57.57 113.9,63.16 H 104.8 z"/>
</svg>