<?xml version="1.0" encoding="UTF-8" standalone="no"?>
<!DOCTYPE svg PUBLIC "-//W3C//DTD SVG 1.1//EN" "http://www.w3.org/Graphics/SVG/1.1/DTD/svg11.dtd">
<svg xmlns:svg="http://www.w3.org/2000/svg" xmlns="http://www.w3.org/2000/svg" version="1.1" width="400px" height="240px" viewBox="0 0 200 120">
	<defs/>
	<rect id="border" x="0.25" y="0.25" rx="10" ry="10" width="199.5" height="119.5" style="fill :#FFFFFF;stroke :#000000;stroke-width :0.50"/>
	<path id="blueback" style="fill :#003ABD; stroke :none;" d="M 7,60 7,22 Q 7,20 10,19 L 98,5.1 Q 98,5 100,5 102,5 102,5.1 L 190,19 Q 193,20 193,22 L 193,98 Q 193,100 190,101 L 102,114.9 Q 102,115 100,115 98,115 98,114.9 L 10,101 Q 7,100 7,98"/>
	<path id="Nr46" style="fill :#FFFFFF; fill-rule :evenodd; stroke :none;" d="M 55.53,84.07 V 74.98 L 78.07,26.77 H 88.83 L 66.06,74.98 H 83.61 V 55.58 H 93.26 V 74.98 H 98.66 V 84.07 H 93.26 V 94.05 H 83.61 V 84.07 H 55.53 z M 106,63.06 124.1,26.86 H 134.9 L 120.7,55.35 H 120.9 Q 123,54.47 126,54.47 132.3,54.47 137.3,58.95 142.2,63.48 142.2,73.27 142.2,84.9 136,89.89 129.8,94.83 122.3,94.83 115.1,94.83 109.3,89.38 103.5,83.93 103.5,74.33 103.5,68.19 106,63.06 z M 122.8,63.06 Q 118.7,63.06 115.9,65.74 113.1,68.56 113.1,74.14 113.1,85.23 122.8,85.23 126.1,85.23 129.3,82.69 132.5,80.19 132.5,74.14 132.5,68.51 129.6,65.74 126.8,63.06 122.8,63.06 z"/>
</svg>