<?xml version="1.0" encoding="UTF-8" standalone="no"?>
<!DOCTYPE svg PUBLIC "-//W3C//DTD SVG 1.1//EN" "http://www.w3.org/Graphics/SVG/1.1/DTD/svg11.dtd">
<svg xmlns:svg="http://www.w3.org/2000/svg" xmlns="http://www.w3.org/2000/svg" version="1.1" width="400px" height="240px" viewBox="0 0 200 120">
	<defs/>
	<rect id="border" style="fill :#FFFFFF; fill-rule :evenodd; stroke :#000000; stroke-width :0.50;" x="0.25" y="0.25" rx="10" ry="10" width="199.5" height="119.5"/>
    <path id="blueback" style="fill :#003ABD; fill-rule :evenodd; stroke :none;" d="M 7,60 7,22 Q 7,20 10,19 L 98,5.1 Q 98,5 100,5 102,5 102,5.1 L 190,19 Q 193,20 193,22 L 193,98 Q 193,100 190,101 L 102,114.9 Q 102,115 100,115 98,115 98,114.9 L 10,101 Q 7,100 7,98"/>
    <path id="number480" style="fill :#FFFFFF; fill-rule :evenodd; stroke :none;" d="M 33.12,84.07 V 74.98 L 55.65,26.77 H 66.41 L 43.64,74.98 H 61.19 V 55.58 H 70.84 V 74.98 H 76.24 V 84.07 H 70.84 V 94.05 H 61.19 V 84.07 H 33.12 z M 90.42,45.47 Q 90.42,50.23 93.37,52.67 96.33,55.12 100.1,55.12 103.8,55.12 106.7,52.67 109.7,50.23 109.7,45.47 109.7,40.76 106.8,38.31 103.8,35.87 100.1,35.82 96.38,35.82 93.42,38.27 90.46,40.71 90.42,45.47 z M 79.57,74.42 Q 79.57,64.59 87.51,59.28 84.51,56.6 82.66,53.37 80.81,50.13 80.77,45.65 80.77,37.53 86.31,31.85 91.85,26.17 100.1,26.17 108.2,26.17 113.8,31.85 119.3,37.53 119.4,45.65 119.4,50.09 117.5,53.32 115.6,56.55 112.7,59.28 120.6,64.63 120.6,74.42 120.6,83.38 114.5,88.97 108.5,94.55 100.1,94.6 91.67,94.6 85.62,89.01 79.57,83.43 79.57,74.42 z M 89.22,74.33 Q 89.22,78.95 92.45,81.95 95.68,84.95 100.1,85 104.4,85 107.6,81.99 110.9,78.99 111,74.33 111,69.71 107.7,66.66 104.4,63.62 100.1,63.62 95.73,63.62 92.5,66.66 89.26,69.71 89.22,74.33 z M 154.9,74.7 V 46.12 Q 154.9,41.27 152.3,38.54 149.8,35.82 145.5,35.82 141.2,35.82 138.6,38.54 136,41.27 136,46.12 V 74.7 Q 136,79.59 138.6,82.27 141.2,84.95 145.5,85 149.7,85 152.3,82.32 154.9,79.64 154.9,74.7 z M 126.3,75.25 V 45.56 Q 126.3,36.28 132.2,31.25 138,26.22 145.5,26.17 152.9,26.17 158.7,31.2 164.5,36.24 164.6,45.56 V 75.25 Q 164.6,84.53 158.8,89.57 152.9,94.6 145.5,94.6 138,94.6 132.2,89.57 126.3,84.53 126.3,75.25 z"/>
</svg>