<?xml version="1.0" encoding="UTF-8" standalone="no"?>
<!DOCTYPE svg PUBLIC "-//W3C//DTD SVG 1.1//EN" "http://www.w3.org/Graphics/SVG/1.1/DTD/svg11.dtd">
<svg xmlns:svg="http://www.w3.org/2000/svg" xmlns="http://www.w3.org/2000/svg" version="1.1" width="400px" height="240px" viewBox="0 0 200 120">
	<defs/>
	<rect id="border" x="0.25" y="0.25" rx="10" ry="10" width="199.5" height="119.5" style="fill :#FFFFFF;stroke :#000000;stroke-width :0.50"/>
	<path id="blueback" style="fill :#003ABD; stroke :none;" d="M 7,60 7,22 Q 7,20 10,19 L 98,5.1 Q 98,5 100,5 102,5 102,5.1 L 190,19 Q 193,20 193,22 L 193,98 Q 193,100 190,101 L 102,114.9 Q 102,115 100,115 98,115 98,114.9 L 10,101 Q 7,100 7,98"/>
	<path id="Nr49" style="fill :#FFFFFF; fill-rule :evenodd; stroke :none;" d="M 55.53,84.07 V 74.98 L 78.07,26.77 H 88.83 L 66.06,74.98 H 83.61 V 55.58 H 93.26 V 74.98 H 98.66 V 84.07 H 93.26 V 94.05 H 83.61 V 84.07 H 55.53 z M 139.6,58.08 121.5,94.28 H 110.7 L 124.9,65.79 H 124.7 Q 122.4,66.66 119.6,66.66 113.1,66.66 108.3,62.19 103.5,57.75 103.5,47.87 103.5,36.28 109.6,31.29 115.8,26.26 123.4,26.26 130.4,26.26 136.3,31.8 142.2,37.34 142.2,46.86 142.2,53 139.6,58.08 z M 122.8,58.08 Q 126.8,58.08 129.6,55.4 132.5,52.81 132.5,47.04 132.5,35.91 122.8,35.91 119.4,35.91 116.3,38.45 113.1,41.04 113.1,47.04 113.1,52.77 115.9,55.4 118.7,58.08 122.8,58.08 z"/>
</svg>