<?xml version="1.0" encoding="UTF-8" standalone="no"?>
<svg xmlns:svg="http://www.w3.org/2000/svg" xmlns="http://www.w3.org/2000/svg" version="1.1" width="400px" height="240px" viewBox="0 0 200 120">
	<defs/>
	<rect x="0.25" y="0.25" rx="10" ry="10" width="199.5" height="119.5" style="fill :#FFFFFF;stroke :#000000;stroke-width :0.50"/>
    <path d="M 7,60 7,22 Q 7,20 10,19 L 98,5.1 Q 98,5 100,5 102,5 102,5.1 L 190,19 Q 193,20 193,22 L 193,98 Q 193,100 190,101 L 102,114.9 Q 102,115 100,115 98,115 98,114.9 L 10,101 Q 7,100 7,98" style="fill :#003ABD; stroke :none"/>
    <path id="number" d="M 82.11,63.16 V 26.77 H 117.9 V 36.42 H 91.2 V 51.61 Q 95.82,47.92 102,47.92 105.8,47.92 108.9,49.39 112.1,50.87 114,52.86 116.7,55.86 118,59.37 119.2,62.88 119.3,71.28 119.3,78.07 118.3,81.35 117.3,84.63 115.1,87.44 113,90.08 109.3,92.34 105.6,94.6 100.5,94.6 94.02,94.6 87.97,90.58 81.92,86.57 80.86,77.15 H 90.51 Q 92.22,85 100.2,85 107.2,85 108.4,80.15 109.6,75.3 109.6,70.54 109.6,64.96 107.7,61.26 105.8,57.57 99.88,57.57 94.3,57.57 91.2,63.16 H 82.11 z" style="fill :#FFFFFF; fill-rule :evenodd; stroke :none"/>
</svg>