<?xml version="1.0" encoding="UTF-8" standalone="no"?>
<!DOCTYPE svg PUBLIC "-//W3C//DTD SVG 1.1//EN" "http://www.w3.org/Graphics/SVG/1.1/DTD/svg11.dtd">
<svg xmlns:svg="http://www.w3.org/2000/svg" xmlns="http://www.w3.org/2000/svg" version="1.1" width="400px" height="240px" viewBox="0 0 200 120">
	<defs/>
	<rect id="border" style="fill :#FFFFFF; fill-rule :evenodd; stroke :#000000; stroke-width :0.50;" x="0.25" y="0.25" rx="10" ry="10" width="199.5" height="119.5"/>
    <path id="blueback" style="fill :#003ABD; fill-rule :evenodd; stroke :none;" d="M 7,60 7,22 Q 7,20 10,19 L 98,5.1 Q 98,5 100,5 102,5 102,5.1 L 190,19 Q 193,20 193,22 L 193,98 Q 193,100 190,101 L 102,114.9 Q 102,115 100,115 98,115 98,114.9 L 10,101 Q 7,100 7,98"/>
    <path id="number516" style="fill :#FFFFFF; fill-rule :evenodd; stroke :none;" d="M 43.18,63.16 V 26.77 H 79.01 V 36.42 H 52.28 V 51.61 Q 56.9,47.92 63.04,47.92 66.87,47.92 70.01,49.39 73.15,50.87 75.04,52.86 77.81,55.86 79.06,59.37 80.31,62.88 80.35,71.28 80.35,78.07 79.38,81.35 78.41,84.63 76.2,87.44 74.12,90.08 70.38,92.34 66.64,94.6 61.61,94.6 55.09,94.6 49.05,90.58 43,86.57 41.93,77.15 H 51.59 Q 53.29,85 61.24,85 68.3,85 69.5,80.15 70.7,75.3 70.7,70.54 70.7,64.96 68.81,61.26 66.92,57.57 60.96,57.57 55.37,57.57 52.28,63.16 H 43.18 z M 99.65,94.18 V 36.97 L 90.05,43.99 V 33.74 L 99.65,26.77 H 109.4 V 94.18 H 99.65 z M 122,63.06 140.1,26.86 H 150.9 L 136.7,55.35 H 136.9 Q 139,54.47 142,54.47 148.3,54.47 153.2,58.95 158.1,63.48 158.1,73.27 158.1,84.9 151.9,89.89 145.7,94.83 138.2,94.83 131.1,94.83 125.2,89.38 119.4,83.93 119.4,74.33 119.4,68.19 122,63.06 z M 138.8,63.06 Q 134.7,63.06 131.9,65.74 129.1,68.56 129.1,74.14 129.1,85.23 138.8,85.23 142.1,85.23 145.3,82.69 148.4,80.19 148.4,74.14 148.4,68.51 145.6,65.74 142.8,63.06 138.8,63.06 z"/>
</svg>