<?xml version="1.0" encoding="UTF-8" standalone="no"?>
<!DOCTYPE svg PUBLIC "-//W3C//DTD SVG 1.1//EN" "http://www.w3.org/Graphics/SVG/1.1/DTD/svg11.dtd">
<svg xmlns:svg="http://www.w3.org/2000/svg" xmlns="http://www.w3.org/2000/svg" version="1.1" width="400px" height="240px" viewBox="0 0 200 120">
	<defs/>
	<rect id="border" style="fill :#FFFFFF; fill-rule :evenodd; stroke :#000000; stroke-width :0.50;" x="0.25" y="0.25" rx="10" ry="10" width="199.5" height="119.5"/>
    <path id="blueback" style="fill :#003ABD; fill-rule :evenodd; stroke :none;" d="M 7,60 7,22 Q 7,20 10,19 L 98,5.1 Q 98,5 100,5 102,5 102,5.1 L 190,19 Q 193,20 193,22 L 193,98 Q 193,100 190,101 L 102,114.9 Q 102,115 100,115 98,115 98,114.9 L 10,101 Q 7,100 7,98"/>
    <path id="number542" style="fill :#FFFFFF; fill-rule :evenodd; stroke :none;" d="M 36.72,63.16 V 26.77 H 72.55 V 36.42 H 45.81 V 51.61 Q 50.43,47.92 56.57,47.92 60.4,47.92 63.54,49.39 66.68,50.87 68.58,52.86 71.35,55.86 72.6,59.37 73.84,62.88 73.89,71.28 73.89,78.07 72.92,81.35 71.95,84.63 69.73,87.44 67.65,90.08 63.91,92.34 60.17,94.6 55.14,94.6 48.63,94.6 42.58,90.58 36.53,86.57 35.47,77.15 H 45.12 Q 46.83,85 54.77,85 61.84,85 63.04,80.15 64.24,75.3 64.24,70.54 64.24,64.96 62.34,61.26 60.45,57.57 54.49,57.57 48.91,57.57 45.81,63.16 H 36.72 z M 78.51,84.07 V 74.98 L 101,26.77 H 111.8 L 89.03,74.98 H 106.6 V 55.58 H 116.2 V 74.98 H 121.6 V 84.07 H 116.2 V 94.05 H 106.6 V 84.07 H 78.51 z M 125.8,94.05 V 85 L 152.1,52.07 Q 153.6,50.13 154.1,48.52 154.6,46.9 154.6,45.38 154.6,41.87 152.1,38.87 149.6,35.87 145.3,35.82 141.3,35.82 138.6,38.41 135.8,40.99 135.4,45.56 H 125.8 Q 125.8,37.39 131.4,31.8 136.9,26.22 144.5,26.17 152.9,26.17 158.5,31.8 164.1,37.44 164.2,45.47 164.2,52.3 160.1,57.29 L 138.5,84.44 H 164.2 V 94.05 H 125.8 z"/>
</svg>