<?xml version="1.0" encoding="UTF-8" standalone="no"?>
<!DOCTYPE svg PUBLIC "-//W3C//DTD SVG 1.1//EN" "http://www.w3.org/Graphics/SVG/1.1/DTD/svg11.dtd">
<svg xmlns:svg="http://www.w3.org/2000/svg" xmlns="http://www.w3.org/2000/svg" version="1.1" width="400px" height="240px" viewBox="0 0 200 120">
	<defs/>
	<rect id="border" style="fill :#FFFFFF; fill-rule :evenodd; stroke :#000000; stroke-width :0.50;" x="0.25" y="0.25" rx="10" ry="10" width="199.5" height="119.5"/>
    <path id="blueback" style="fill :#003ABD; fill-rule :evenodd; stroke :none;" d="M 7,60 7,22 Q 7,20 10,19 L 98,5.1 Q 98,5 100,5 102,5 102,5.1 L 190,19 Q 193,20 193,22 L 193,98 Q 193,100 190,101 L 102,114.9 Q 102,115 100,115 98,115 98,114.9 L 10,101 Q 7,100 7,98"/>
    <path id="number560" style="fill :#FFFFFF; fill-rule :evenodd; stroke :none;" d="M 36.44,63.16 V 26.77 H 72.27 V 36.42 H 45.54 V 51.61 Q 50.15,47.92 56.3,47.92 60.13,47.92 63.27,49.39 66.41,50.87 68.3,52.86 71.07,55.86 72.32,59.37 73.56,62.88 73.61,71.28 73.61,78.07 72.64,81.35 71.67,84.63 69.46,87.44 67.38,90.08 63.64,92.34 59.9,94.6 54.86,94.6 48.35,94.6 42.3,90.58 36.26,86.57 35.19,77.15 H 44.84 Q 46.55,85 54.49,85 61.56,85 62.76,80.15 63.96,75.3 63.96,70.54 63.96,64.96 62.07,61.26 60.17,57.57 54.22,57.57 48.63,57.57 45.54,63.16 H 36.44 z M 83.35,63.06 101.5,26.86 H 112.2 L 98.04,55.35 H 98.22 Q 100.3,54.47 103.3,54.47 109.6,54.47 114.6,58.95 119.5,63.48 119.5,73.27 119.5,84.9 113.3,89.89 107.1,94.83 99.56,94.83 92.4,94.83 86.59,89.38 80.77,83.93 80.77,74.33 80.77,68.19 83.35,63.06 z M 100.1,63.06 Q 96.01,63.06 93.24,65.74 90.42,68.56 90.42,74.14 90.42,85.23 100.1,85.23 103.4,85.23 106.6,82.69 109.8,80.19 109.8,74.14 109.8,68.51 106.9,65.74 104.1,63.06 100.1,63.06 z M 155.2,74.7 V 46.12 Q 155.2,41.27 152.6,38.54 150,35.82 145.7,35.82 141.4,35.82 138.9,38.54 136.3,41.27 136.3,46.12 V 74.7 Q 136.3,79.59 138.9,82.27 141.4,84.95 145.7,85 150,85 152.6,82.32 155.2,79.64 155.2,74.7 z M 126.6,75.25 V 45.56 Q 126.6,36.28 132.4,31.25 138.3,26.22 145.7,26.17 153.2,26.17 159,31.2 164.8,36.24 164.9,45.56 V 75.25 Q 164.9,84.53 159,89.57 153.2,94.6 145.7,94.6 138.3,94.6 132.4,89.57 126.6,84.53 126.6,75.25 z"/>
</svg>