<?xml version="1.0" encoding="UTF-8" standalone="no"?>
<!DOCTYPE svg PUBLIC "-//W3C//DTD SVG 1.1//EN" "http://www.w3.org/Graphics/SVG/1.1/DTD/svg11.dtd">
<svg xmlns:svg="http://www.w3.org/2000/svg" xmlns="http://www.w3.org/2000/svg" version="1.1" width="400px" height="240px" viewBox="0 0 200 120">
	<defs/>
	<rect id="border" style="fill :#FFFFFF; fill-rule :evenodd; stroke :#000000; stroke-width :0.50;" x="0.25" y="0.25" rx="10" ry="10" width="199.5" height="119.5"/>
    <path id="blueback" style="fill :#003ABD; fill-rule :evenodd; stroke :none;" d="M 7,60 7,22 Q 7,20 10,19 L 98,5.1 Q 98,5 100,5 102,5 102,5.1 L 190,19 Q 193,20 193,22 L 193,98 Q 193,100 190,101 L 102,114.9 Q 102,115 100,115 98,115 98,114.9 L 10,101 Q 7,100 7,98"/>
    <path id="number565" style="fill :#FFFFFF; fill-rule :evenodd; stroke :none;" d="M 36.44,63.16 V 26.77 H 72.27 V 36.42 H 45.54 V 51.61 Q 50.15,47.92 56.3,47.92 60.13,47.92 63.27,49.39 66.41,50.87 68.3,52.86 71.07,55.86 72.32,59.37 73.56,62.88 73.61,71.28 73.61,78.07 72.64,81.35 71.67,84.63 69.46,87.44 67.38,90.08 63.64,92.34 59.9,94.6 54.86,94.6 48.35,94.6 42.3,90.58 36.26,86.57 35.19,77.15 H 44.84 Q 46.55,85 54.49,85 61.56,85 62.76,80.15 63.96,75.3 63.96,70.54 63.96,64.96 62.07,61.26 60.17,57.57 54.22,57.57 48.63,57.57 45.54,63.16 H 36.44 z M 83.35,63.06 101.5,26.86 H 112.2 L 98.04,55.35 H 98.22 Q 100.3,54.47 103.3,54.47 109.6,54.47 114.6,58.95 119.5,63.48 119.5,73.27 119.5,84.9 113.3,89.89 107.1,94.83 99.56,94.83 92.4,94.83 86.59,89.38 80.77,83.93 80.77,74.33 80.77,68.19 83.35,63.06 z M 100.1,63.06 Q 96.01,63.06 93.24,65.74 90.42,68.56 90.42,74.14 90.42,85.23 100.1,85.23 103.4,85.23 106.6,82.69 109.8,80.19 109.8,74.14 109.8,68.51 106.9,65.74 104.1,63.06 100.1,63.06 z M 127.8,63.16 V 26.77 H 163.6 V 36.42 H 136.9 V 51.61 Q 141.5,47.92 147.6,47.92 151.5,47.92 154.6,49.39 157.7,50.87 159.6,52.86 162.4,55.86 163.7,59.37 164.9,62.88 164.9,71.28 164.9,78.07 164,81.35 163,84.63 160.8,87.44 158.7,90.08 155,92.34 151.2,94.6 146.2,94.6 139.7,94.6 133.6,90.58 127.6,86.57 126.5,77.15 H 136.2 Q 137.9,85 145.8,85 152.9,85 154.1,80.15 155.3,75.3 155.3,70.54 155.3,64.96 153.4,61.26 151.5,57.57 145.6,57.57 140,57.57 136.9,63.16 H 127.8 z"/>
</svg>