<?xml version="1.0" encoding="UTF-8" standalone="no"?>
<!DOCTYPE svg PUBLIC "-//W3C//DTD SVG 1.1//EN" "http://www.w3.org/Graphics/SVG/1.1/DTD/svg11.dtd">
<svg xmlns:svg="http://www.w3.org/2000/svg" xmlns="http://www.w3.org/2000/svg" version="1.1" width="400px" height="240px" viewBox="0 0 200 120">
	<defs/>
	<rect id="border" style="fill :#FFFFFF; fill-rule :evenodd; stroke :#000000; stroke-width :0.50;" x="0.25" y="0.25" rx="10" ry="10" width="199.5" height="119.5"/>
    <path id="blueback" style="fill :#003ABD; fill-rule :evenodd; stroke :none;" d="M 7,60 7,22 Q 7,20 10,19 L 98,5.1 Q 98,5 100,5 102,5 102,5.1 L 190,19 Q 193,20 193,22 L 193,98 Q 193,100 190,101 L 102,114.9 Q 102,115 100,115 98,115 98,114.9 L 10,101 Q 7,100 7,98"/>
    <path id="number057" style="fill :#FFFFFF; fill-rule :evenodd; stroke :none;" d="M 59.41,63.16 V 26.77 H 95.24 V 36.42 H 68.51 V 51.61 Q 73.13,47.92 79.27,47.92 83.1,47.92 86.24,49.39 89.38,50.87 91.27,52.86 94.04,55.86 95.29,59.37 96.54,62.88 96.58,71.28 96.58,78.07 95.61,81.35 94.64,84.63 92.43,87.44 90.35,90.08 86.61,92.34 82.87,94.6 77.84,94.6 71.33,94.6 65.28,90.58 59.23,86.57 58.17,77.15 H 67.82 Q 69.52,85 77.47,85 84.53,85 85.73,80.15 86.93,75.3 86.93,70.54 86.93,64.96 85.04,61.26 83.15,57.57 77.19,57.57 71.6,57.57 68.51,63.16 H 59.41 z M 104.9,46.12 V 26.77 H 143.2 V 36.42 L 120.4,94.05 H 109.6 L 132.4,36.42 H 114.5 V 46.12 H 104.9 z"/>
</svg>