<?xml version="1.0" encoding="UTF-8" standalone="no"?>
<!DOCTYPE svg PUBLIC "-//W3C//DTD SVG 1.1//EN" "http://www.w3.org/Graphics/SVG/1.1/DTD/svg11.dtd">
<svg xmlns:svg="http://www.w3.org/2000/svg" xmlns="http://www.w3.org/2000/svg" version="1.1" width="400px" height="240px" viewBox="0 0 200 120">
	<defs/>
	<rect id="border" style="fill :#FFFFFF; fill-rule :evenodd; stroke :#000000; stroke-width :0.50;" x="0.25" y="0.25" rx="10" ry="10" width="199.5" height="119.5"/>
    <path id="blueback" style="fill :#003ABD; fill-rule :evenodd; stroke :none;" d="M 7,60 7,22 Q 7,20 10,19 L 98,5.1 Q 98,5 100,5 102,5 102,5.1 L 190,19 Q 193,20 193,22 L 193,98 Q 193,100 190,101 L 102,114.9 Q 102,115 100,115 98,115 98,114.9 L 10,101 Q 7,100 7,98"/>
    <path id="number573" style="fill :#FFFFFF; fill-rule :evenodd; stroke :none;" d="M 36.72,63.16 V 26.77 H 72.55 V 36.42 H 45.81 V 51.61 Q 50.43,47.92 56.57,47.92 60.4,47.92 63.54,49.39 66.68,50.87 68.58,52.86 71.35,55.86 72.6,59.37 73.84,62.88 73.89,71.28 73.89,78.07 72.92,81.35 71.95,84.63 69.73,87.44 67.65,90.08 63.91,92.34 60.17,94.6 55.14,94.6 48.63,94.6 42.58,90.58 36.53,86.57 35.47,77.15 H 45.12 Q 46.83,85 54.77,85 61.84,85 63.04,80.15 64.24,75.3 64.24,70.54 64.24,64.96 62.34,61.26 60.45,57.57 54.49,57.57 48.91,57.57 45.81,63.16 H 36.72 z M 82.2,46.12 V 26.77 H 120.5 V 36.42 L 97.71,94.05 H 86.91 L 109.7,36.42 H 91.85 V 46.12 H 82.2 z M 139.4,63.62 V 55.12 H 142.7 Q 147.5,55.12 150.3,52.44 153.1,49.76 153.1,45.56 153.1,41.45 150.2,38.64 147.3,35.82 143.3,35.82 140.2,35.82 137.5,37.85 134.8,39.88 134,43.95 H 124.4 Q 124.9,36.84 130.3,31.53 135.7,26.22 142.9,26.17 151.9,26.17 157.3,32.08 162.7,37.99 162.8,45.38 162.8,49.26 161.3,52.9 159.7,56.55 155.6,59.28 159.8,62 161.7,65.97 163.5,69.94 163.5,74.01 163.5,83.43 157.6,89.01 151.7,94.6 143.1,94.6 136.3,94.6 130.8,90.21 125.4,85.83 124,77.33 H 133.6 Q 135,80.79 137.2,82.87 139.5,84.95 143.7,85 147.7,85 150.8,82.18 153.9,79.36 153.9,74.33 153.9,69.3 150.8,66.48 147.8,63.66 143.5,63.62 H 139.4 z"/>
</svg>