<?xml version="1.0" encoding="UTF-8" standalone="no"?>
<!DOCTYPE svg PUBLIC "-//W3C//DTD SVG 1.1//EN" "http://www.w3.org/Graphics/SVG/1.1/DTD/svg11.dtd">
<svg xmlns:svg="http://www.w3.org/2000/svg" xmlns="http://www.w3.org/2000/svg" version="1.1" width="400px" height="240px" viewBox="0 0 200 120">
	<defs/>
	<rect id="border" style="fill :#FFFFFF; fill-rule :evenodd; stroke :#000000; stroke-width :0.50;" x="0.25" y="0.25" rx="10" ry="10" width="199.5" height="119.5"/>
    <path id="blueback" style="fill :#003ABD; fill-rule :evenodd; stroke :none;" d="M 7,60 7,22 Q 7,20 10,19 L 98,5.1 Q 98,5 100,5 102,5 102,5.1 L 190,19 Q 193,20 193,22 L 193,98 Q 193,100 190,101 L 102,114.9 Q 102,115 100,115 98,115 98,114.9 L 10,101 Q 7,100 7,98"/>
    <path id="number059" style="fill :#FFFFFF; fill-rule :evenodd; stroke :none;" d="M 59.14,63.16 V 26.77 H 94.97 V 36.42 H 68.23 V 51.61 Q 72.85,47.92 78.99,47.92 82.82,47.92 85.96,49.39 89.1,50.87 91,52.86 93.77,55.86 95.01,59.37 96.26,62.88 96.31,71.28 96.31,78.07 95.34,81.35 94.37,84.63 92.15,87.44 90.07,90.08 86.33,92.34 82.59,94.6 77.56,94.6 71.05,94.6 65,90.58 58.95,86.57 57.89,77.15 H 67.54 Q 69.25,85 77.19,85 84.25,85 85.45,80.15 86.66,75.3 86.66,70.54 86.66,64.96 84.76,61.26 82.87,57.57 76.91,57.57 71.33,57.57 68.23,63.16 H 59.14 z M 139.6,58.08 121.5,94.28 H 110.7 L 124.9,65.79 H 124.7 Q 122.4,66.66 119.6,66.66 113.1,66.66 108.3,62.19 103.5,57.75 103.5,47.87 103.5,36.28 109.6,31.29 115.8,26.26 123.4,26.26 130.4,26.26 136.3,31.8 142.2,37.34 142.2,46.86 142.2,53 139.6,58.08 z M 122.8,58.08 Q 126.8,58.08 129.6,55.4 132.5,52.81 132.5,47.04 132.5,35.91 122.8,35.91 119.4,35.91 116.3,38.45 113.1,41.04 113.1,47.04 113.1,52.77 115.9,55.4 118.7,58.08 122.8,58.08 z"/>
</svg>