<?xml version="1.0" encoding="UTF-8" standalone="no"?>
<svg xmlns:svg="http://www.w3.org/2000/svg" xmlns="http://www.w3.org/2000/svg" version="1.1" width="400px" height="240px" viewBox="0 0 200 120">
	<defs/>
	<rect x="0.25" y="0.25" rx="10" ry="10" width="199.5" height="119.5" style="fill :#FFFFFF;stroke :#000000;stroke-width :0.50"/>
    <path d="M 7,60 7,22 Q 7,20 10,19 L 98,5.1 Q 98,5 100,5 102,5 102,5.1 L 190,19 Q 193,20 193,22 L 193,98 Q 193,100 190,101 L 102,114.9 Q 102,115 100,115 98,115 98,114.9 L 10,101 Q 7,100 7,98" style="fill :#003ABD; stroke :none"/>
    <path d="M 83.35,63.06 101.5,26.86 H 112.2 L 98.04,55.35 H 98.22 Q 100.3,54.47 103.3,54.47 109.6,54.47 114.6,58.95 119.5,63.48 119.5,73.27 119.5,84.9 113.3,89.89 107.1,94.83 99.56,94.83 92.4,94.83 86.59,89.38 80.77,83.93 80.77,74.33 80.77,68.19 83.35,63.06 z M 100.1,63.06 Q 96.01,63.06 93.24,65.74 90.42,68.56 90.42,74.14 90.42,85.23 100.1,85.23 103.4,85.23 106.6,82.69 109.8,80.19 109.8,74.14 109.8,68.51 106.9,65.74 104.1,63.06 100.1,63.06 z" style="fill :#FFFFFF; fill-rule :evenodd; stroke :none"/>
</svg>