<?xml version="1.0" encoding="UTF-8" standalone="no"?>
<!DOCTYPE svg PUBLIC "-//W3C//DTD SVG 1.1//EN" "http://www.w3.org/Graphics/SVG/1.1/DTD/svg11.dtd">
<svg xmlns:svg="http://www.w3.org/2000/svg" xmlns="http://www.w3.org/2000/svg" version="1.1" width="400px" height="240px" viewBox="0 0 200 120">
	<defs/>
	<rect id="border" style="fill :#FFFFFF; fill-rule :evenodd; stroke :#000000; stroke-width :0.50;" x="0.25" y="0.25" rx="10" ry="10" width="199.5" height="119.5"/>
    <path id="blueback" style="fill :#003ABD; fill-rule :evenodd; stroke :none;" d="M 7,60 7,22 Q 7,20 10,19 L 98,5.1 Q 98,5 100,5 102,5 102,5.1 L 190,19 Q 193,20 193,22 L 193,98 Q 193,100 190,101 L 102,114.9 Q 102,115 100,115 98,115 98,114.9 L 10,101 Q 7,100 7,98"/>
    <path id="number061" style="fill :#FFFFFF; fill-rule :evenodd; stroke :none;" d="M 67.4,63.06 85.5,26.86 H 96.26 L 82.08,55.35 H 82.27 Q 84.39,54.47 87.39,54.47 93.67,54.47 98.61,58.95 103.5,63.48 103.5,73.27 103.5,84.9 97.32,89.89 91.13,94.83 83.61,94.83 76.45,94.83 70.63,89.38 64.81,83.93 64.81,74.33 64.81,68.19 67.4,63.06 z M 84.16,63.06 Q 80.05,63.06 77.28,65.74 74.47,68.56 74.47,74.14 74.47,85.23 84.16,85.23 87.49,85.23 90.67,82.69 93.81,80.19 93.81,74.14 93.81,68.51 91,65.74 88.18,63.06 84.16,63.06 z M 122.9,94.18 V 36.97 L 113.3,43.99 V 33.74 L 122.9,26.77 H 132.6 V 94.18 H 122.9 z"/>
</svg>