<?xml version="1.0" encoding="UTF-8" standalone="no"?>
<!DOCTYPE svg PUBLIC "-//W3C//DTD SVG 1.1//EN" "http://www.w3.org/Graphics/SVG/1.1/DTD/svg11.dtd">
<svg xmlns:svg="http://www.w3.org/2000/svg" xmlns="http://www.w3.org/2000/svg" version="1.1" width="400px" height="240px" viewBox="0 0 200 120">
	<defs/>
	<rect id="border" style="fill :#FFFFFF; fill-rule :evenodd; stroke :#000000; stroke-width :0.50;" x="0.25" y="0.25" rx="10" ry="10" width="199.5" height="119.5"/>
    <path id="blueback" style="fill :#003ABD; fill-rule :evenodd; stroke :none;" d="M 7,60 7,22 Q 7,20 10,19 L 98,5.1 Q 98,5 100,5 102,5 102,5.1 L 190,19 Q 193,20 193,22 L 193,98 Q 193,100 190,101 L 102,114.9 Q 102,115 100,115 98,115 98,114.9 L 10,101 Q 7,100 7,98"/>
    <path id="number620" style="fill :#FFFFFF; fill-rule :evenodd; stroke :none;" d="M 37.96,63.06 56.06,26.86 H 66.82 L 52.65,55.35 H 52.83 Q 54.96,54.47 57.96,54.47 64.24,54.47 69.18,58.95 74.07,63.48 74.07,73.27 74.07,84.9 67.89,89.89 61.7,94.83 54.17,94.83 47.01,94.83 41.2,89.38 35.38,83.93 35.38,74.33 35.38,68.19 37.96,63.06 z M 54.73,63.06 Q 50.62,63.06 47.85,65.74 45.03,68.56 45.03,74.14 45.03,85.23 54.73,85.23 58.05,85.23 61.24,82.69 64.38,80.19 64.38,74.14 64.38,68.51 61.56,65.74 58.74,63.06 54.73,63.06 z M 80.68,94.05 V 85 L 107,52.07 Q 108.5,50.13 109,48.52 109.4,46.9 109.4,45.38 109.4,41.87 106.9,38.87 104.5,35.87 100.2,35.82 96.24,35.82 93.47,38.41 90.7,40.99 90.33,45.56 H 80.68 Q 80.72,37.39 86.26,31.8 91.8,26.22 99.42,26.17 107.8,26.17 113.4,31.8 119,37.44 119,45.47 119,52.3 115,57.29 L 93.37,84.44 H 119 V 94.05 H 80.68 z M 155.2,74.7 V 46.12 Q 155.2,41.27 152.6,38.54 150,35.82 145.7,35.82 141.4,35.82 138.9,38.54 136.3,41.27 136.3,46.12 V 74.7 Q 136.3,79.59 138.9,82.27 141.4,84.95 145.7,85 150,85 152.6,82.32 155.2,79.64 155.2,74.7 z M 126.6,75.25 V 45.56 Q 126.6,36.28 132.4,31.25 138.3,26.22 145.7,26.17 153.2,26.17 159,31.2 164.8,36.24 164.9,45.56 V 75.25 Q 164.9,84.53 159,89.57 153.2,94.6 145.7,94.6 138.3,94.6 132.4,89.57 126.6,84.53 126.6,75.25 z"/>
</svg>