<?xml version="1.0" encoding="UTF-8" standalone="no"?>
<svg xmlns:svg="http://www.w3.org/2000/svg" xmlns="http://www.w3.org/2000/svg" version="1.1" width="400px" height="240px" viewBox="0 0 200 120">
	<defs/>
	<rect id="border" style="fill :#FFFFFF; fill-rule :evenodd; stroke :#000000; stroke-width :0.50;" x="0.25" y="0.25" rx="10" ry="10" width="199.5" height="119.5"/>
    <path id="blueback" style="fill :#003ABD; fill-rule :evenodd; stroke :none;" d="M 7,60 7,22 Q 7,20 10,19 L 98,5.1 Q 98,5 100,5 102,5 102,5.1 L 190,19 Q 193,20 193,22 L 193,98 Q 193,100 190,101 L 102,114.9 Q 102,115 100,115 98,115 98,114.9 L 10,101 Q 7,100 7,98"/>
    <path id="number063" style="fill :#FFFFFF; fill-rule :evenodd; stroke :none;" d="M 60.66,63.06 78.76,26.86 H 89.52 L 75.34,55.35 H 75.53 Q 77.65,54.47 80.65,54.47 86.93,54.47 91.87,58.95 96.77,63.48 96.77,73.27 96.77,84.9 90.58,89.89 84.39,94.83 76.87,94.83 69.71,94.83 63.89,89.38 58.07,83.93 58.07,74.33 58.07,68.19 60.66,63.06 z M 77.42,63.06 Q 73.31,63.06 70.54,65.74 67.72,68.56 67.72,74.14 67.72,85.23 77.42,85.23 80.75,85.23 83.93,82.69 87.07,80.19 87.07,74.14 87.07,68.51 84.25,65.74 81.44,63.06 77.42,63.06 z M 117,63.62 V 55.12 H 120.3 Q 125.1,55.12 127.9,52.44 130.7,49.76 130.7,45.56 130.7,41.45 127.8,38.64 124.9,35.82 120.9,35.82 117.8,35.82 115.1,37.85 112.4,39.88 111.6,43.95 H 101.9 Q 102.5,36.84 107.9,31.53 113.3,26.22 120.5,26.17 129.5,26.17 134.9,32.08 140.3,37.99 140.4,45.38 140.4,49.26 138.8,52.9 137.3,56.55 133.2,59.28 137.4,62 139.2,65.97 141.1,69.94 141.1,74.01 141.1,83.43 135.2,89.01 129.3,94.6 120.7,94.6 113.9,94.6 108.4,90.21 103,85.83 101.6,77.33 H 111.2 Q 112.6,80.79 114.8,82.87 117.1,84.95 121.2,85 125.3,85 128.4,82.18 131.4,79.36 131.4,74.33 131.4,69.3 128.4,66.48 125.4,63.66 121.1,63.62 H 117 z"/>
</svg>