<?xml version="1.0" encoding="UTF-8" standalone="no"?>
<!DOCTYPE svg PUBLIC "-//W3C//DTD SVG 1.1//EN" "http://www.w3.org/Graphics/SVG/1.1/DTD/svg11.dtd">
<svg xmlns:svg="http://www.w3.org/2000/svg" xmlns="http://www.w3.org/2000/svg" version="1.1" width="400px" height="240px" viewBox="0 0 200 120">
	<defs/>
	<rect id="border" style="fill :#FFFFFF; fill-rule :evenodd; stroke :#000000; stroke-width :0.50;" x="0.25" y="0.25" rx="10" ry="10" width="199.5" height="119.5"/>
    <path id="blueback" style="fill :#003ABD; fill-rule :evenodd; stroke :none;" d="M 7,60 7,22 Q 7,20 10,19 L 98,5.1 Q 98,5 100,5 102,5 102,5.1 L 190,19 Q 193,20 193,22 L 193,98 Q 193,100 190,101 L 102,114.9 Q 102,115 100,115 98,115 98,114.9 L 10,101 Q 7,100 7,98"/>
    <path id="number643" style="fill :#FFFFFF; fill-rule :evenodd; stroke :none;" d="M 37.96,63.06 56.06,26.86 H 66.82 L 52.65,55.35 H 52.83 Q 54.96,54.47 57.96,54.47 64.24,54.47 69.18,58.95 74.07,63.48 74.07,73.27 74.07,84.9 67.89,89.89 61.7,94.83 54.17,94.83 47.01,94.83 41.2,89.38 35.38,83.93 35.38,74.33 35.38,68.19 37.96,63.06 z M 54.73,63.06 Q 50.62,63.06 47.85,65.74 45.03,68.56 45.03,74.14 45.03,85.23 54.73,85.23 58.05,85.23 61.24,82.69 64.38,80.19 64.38,74.14 64.38,68.51 61.56,65.74 58.74,63.06 54.73,63.06 z M 78.78,84.07 V 74.98 L 101.3,26.77 H 112.1 L 89.31,74.98 H 106.9 V 55.58 H 116.5 V 74.98 H 121.9 V 84.07 H 116.5 V 94.05 H 106.9 V 84.07 H 78.78 z M 139.7,63.62 V 55.12 H 143 Q 147.8,55.12 150.6,52.44 153.4,49.76 153.4,45.56 153.4,41.45 150.5,38.64 147.6,35.82 143.6,35.82 140.5,35.82 137.8,37.85 135.1,39.88 134.3,43.95 H 124.6 Q 125.2,36.84 130.6,31.53 136,26.22 143.2,26.17 152.2,26.17 157.6,32.08 163,37.99 163.1,45.38 163.1,49.26 161.5,52.9 160,56.55 155.8,59.28 160.1,62 161.9,65.97 163.8,69.94 163.8,74.01 163.8,83.43 157.9,89.01 152,94.6 143.4,94.6 136.5,94.6 131.1,90.21 125.7,85.83 124.3,77.33 H 133.9 Q 135.3,80.79 137.5,82.87 139.8,84.95 143.9,85 148,85 151,82.18 154.1,79.36 154.1,74.33 154.1,69.3 151.1,66.48 148,63.66 143.8,63.62 H 139.7 z"/>
</svg>