<?xml version="1.0" encoding="UTF-8" standalone="no"?>
<!DOCTYPE svg PUBLIC "-//W3C//DTD SVG 1.1//EN" "http://www.w3.org/Graphics/SVG/1.1/DTD/svg11.dtd">
<svg xmlns:svg="http://www.w3.org/2000/svg" xmlns="http://www.w3.org/2000/svg" version="1.1" width="400px" height="240px" viewBox="0 0 200 120">
	<defs/>
	<rect id="border" style="fill :#FFFFFF; fill-rule :evenodd; stroke :#000000; stroke-width :0.50;" x="0.25" y="0.25" rx="10" ry="10" width="199.5" height="119.5"/>
    <path id="blueback" style="fill :#003ABD; fill-rule :evenodd; stroke :none;" d="M 7,60 7,22 Q 7,20 10,19 L 98,5.1 Q 98,5 100,5 102,5 102,5.1 L 190,19 Q 193,20 193,22 L 193,98 Q 193,100 190,101 L 102,114.9 Q 102,115 100,115 98,115 98,114.9 L 10,101 Q 7,100 7,98"/>
    <path id="number648" style="fill :#FFFFFF; fill-rule :evenodd; stroke :none;" d="M 37.96,63.06 56.06,26.86 H 66.82 L 52.65,55.35 H 52.83 Q 54.96,54.47 57.96,54.47 64.24,54.47 69.18,58.95 74.07,63.48 74.07,73.27 74.07,84.9 67.89,89.89 61.7,94.83 54.17,94.83 47.01,94.83 41.2,89.38 35.38,83.93 35.38,74.33 35.38,68.19 37.96,63.06 z M 54.73,63.06 Q 50.62,63.06 47.85,65.74 45.03,68.56 45.03,74.14 45.03,85.23 54.73,85.23 58.05,85.23 61.24,82.69 64.38,80.19 64.38,74.14 64.38,68.51 61.56,65.74 58.74,63.06 54.73,63.06 z M 78.78,84.07 V 74.98 L 101.3,26.77 H 112.1 L 89.31,74.98 H 106.9 V 55.58 H 116.5 V 74.98 H 121.9 V 84.07 H 116.5 V 94.05 H 106.9 V 84.07 H 78.78 z M 136.1,45.47 Q 136.1,50.23 139,52.67 142,55.12 145.7,55.12 149.4,55.12 152.4,52.67 155.3,50.23 155.4,45.47 155.4,40.76 152.4,38.31 149.5,35.87 145.7,35.82 142,35.82 139.1,38.27 136.1,40.71 136.1,45.47 z M 125.2,74.42 Q 125.2,64.59 133.2,59.28 130.2,56.6 128.3,53.37 126.5,50.13 126.4,45.65 126.4,37.53 132,31.85 137.5,26.17 145.7,26.17 153.9,26.17 159.5,31.85 165,37.53 165,45.65 165,50.09 163.1,53.32 161.3,56.55 158.3,59.28 166.2,64.63 166.2,74.42 166.2,83.38 160.2,88.97 154.1,94.55 145.7,94.6 137.3,94.6 131.3,89.01 125.2,83.43 125.2,74.42 z M 134.9,74.33 Q 134.9,78.95 138.1,81.95 141.3,84.95 145.7,85 150,85 153.3,81.99 156.6,78.99 156.6,74.33 156.6,69.71 153.4,66.66 150.1,63.62 145.7,63.62 141.4,63.62 138.2,66.66 134.9,69.71 134.9,74.33 z"/>
</svg>