<?xml version="1.0" encoding="UTF-8" standalone="no"?>
<!DOCTYPE svg PUBLIC "-//W3C//DTD SVG 1.1//EN" "http://www.w3.org/Graphics/SVG/1.1/DTD/svg11.dtd">
<svg xmlns:svg="http://www.w3.org/2000/svg" xmlns="http://www.w3.org/2000/svg" version="1.1" width="400px" height="240px" viewBox="0 0 200 120">
	<defs/>
	<rect id="border" style="fill :#FFFFFF; fill-rule :evenodd; stroke :#000000; stroke-width :0.50;" x="0.25" y="0.25" rx="10" ry="10" width="199.5" height="119.5"/>
    <path id="blueback" style="fill :#003ABD; fill-rule :evenodd; stroke :none;" d="M 7,60 7,22 Q 7,20 10,19 L 98,5.1 Q 98,5 100,5 102,5 102,5.1 L 190,19 Q 193,20 193,22 L 193,98 Q 193,100 190,101 L 102,114.9 Q 102,115 100,115 98,115 98,114.9 L 10,101 Q 7,100 7,98"/>
    <path id="number656" style="fill :#FFFFFF; fill-rule :evenodd; stroke :none;" d="M 37.69,63.06 55.79,26.86 H 66.55 L 52.37,55.35 H 52.56 Q 54.68,54.47 57.68,54.47 63.96,54.47 68.9,58.95 73.8,63.48 73.8,73.27 73.8,84.9 67.61,89.89 61.42,94.83 53.89,94.83 46.74,94.83 40.92,89.38 35.1,83.93 35.1,74.33 35.1,68.19 37.69,63.06 z M 54.45,63.06 Q 50.34,63.06 47.57,65.74 44.75,68.56 44.75,74.14 44.75,85.23 54.45,85.23 57.77,85.23 60.96,82.69 64.1,80.19 64.1,74.14 64.1,68.51 61.28,65.74 58.47,63.06 54.45,63.06 z M 82.11,63.16 V 26.77 H 117.9 V 36.42 H 91.2 V 51.61 Q 95.82,47.92 102,47.92 105.8,47.92 108.9,49.39 112.1,50.87 114,52.86 116.7,55.86 118,59.37 119.2,62.88 119.3,71.28 119.3,78.07 118.3,81.35 117.3,84.63 115.1,87.44 113,90.08 109.3,92.34 105.6,94.6 100.5,94.6 94.02,94.6 87.97,90.58 81.92,86.57 80.86,77.15 H 90.51 Q 92.22,85 100.2,85 107.2,85 108.4,80.15 109.6,75.3 109.6,70.54 109.6,64.96 107.7,61.26 105.8,57.57 99.88,57.57 94.3,57.57 91.2,63.16 H 82.11 z M 129,63.06 147.1,26.86 H 157.9 L 143.7,55.35 H 143.9 Q 146,54.47 149,54.47 155.3,54.47 160.2,58.95 165.1,63.48 165.1,73.27 165.1,84.9 158.9,89.89 152.8,94.83 145.2,94.83 138.1,94.83 132.3,89.38 126.4,83.93 126.4,74.33 126.4,68.19 129,63.06 z M 145.8,63.06 Q 141.7,63.06 138.9,65.74 136.1,68.56 136.1,74.14 136.1,85.23 145.8,85.23 149.1,85.23 152.3,82.69 155.4,80.19 155.4,74.14 155.4,68.51 152.6,65.74 149.8,63.06 145.8,63.06 z"/>
</svg>