<?xml version="1.0" encoding="UTF-8" standalone="no"?>
<svg xmlns:svg="http://www.w3.org/2000/svg" xmlns="http://www.w3.org/2000/svg" version="1.1" width="400px" height="240px" viewBox="0 0 200 120">
	<defs/>
	<rect id="border" style="fill :#FFFFFF; fill-rule :evenodd; stroke :#000000; stroke-width :0.50;" x="0.25" y="0.25" rx="10" ry="10" width="199.5" height="119.5"/>
    <path id="blueback" style="fill :#003ABD; fill-rule :evenodd; stroke :none;" d="M 7,60 7,22 Q 7,20 10,19 L 98,5.1 Q 98,5 100,5 102,5 102,5.1 L 190,19 Q 193,20 193,22 L 193,98 Q 193,100 190,101 L 102,114.9 Q 102,115 100,115 98,115 98,114.9 L 10,101 Q 7,100 7,98"/>
    <path id="number066" style="fill :#FFFFFF; fill-rule :evenodd; stroke :none;" d="M 60.38,63.06 78.48,26.86 H 89.24 L 75.07,55.35 H 75.25 Q 77.37,54.47 80.38,54.47 86.66,54.47 91.6,58.95 96.49,63.48 96.49,73.27 96.49,84.9 90.3,89.89 84.12,94.83 76.59,94.83 69.43,94.83 63.61,89.38 57.8,83.93 57.8,74.33 57.8,68.19 60.38,63.06 z M 77.14,63.06 Q 73.03,63.06 70.26,65.74 67.45,68.56 67.45,74.14 67.45,85.23 77.14,85.23 80.47,85.23 83.65,82.69 86.79,80.19 86.79,74.14 86.79,68.51 83.98,65.74 81.16,63.06 77.14,63.06 z M 106.3,63.06 124.4,26.86 H 135.2 L 121,55.35 H 121.2 Q 123.3,54.47 126.3,54.47 132.6,54.47 137.5,58.95 142.4,63.48 142.4,73.27 142.4,84.9 136.2,89.89 130.1,94.83 122.5,94.83 115.4,94.83 109.6,89.38 103.7,83.93 103.7,74.33 103.7,68.19 106.3,63.06 z M 123.1,63.06 Q 119,63.06 116.2,65.74 113.4,68.56 113.4,74.14 113.4,85.23 123.1,85.23 126.4,85.23 129.6,82.69 132.7,80.19 132.7,74.14 132.7,68.51 129.9,65.74 127.1,63.06 123.1,63.06 z"/>
</svg>