<?xml version="1.0" encoding="UTF-8" standalone="no"?>
<!DOCTYPE svg PUBLIC "-//W3C//DTD SVG 1.1//EN" "http://www.w3.org/Graphics/SVG/1.1/DTD/svg11.dtd">
<svg xmlns:svg="http://www.w3.org/2000/svg" xmlns="http://www.w3.org/2000/svg" version="1.1" width="400px" height="240px" viewBox="0 0 200 120">
	<defs/>
	<rect id="border" style="fill :#FFFFFF; fill-rule :evenodd; stroke :#000000; stroke-width :0.50;" x="0.25" y="0.25" rx="10" ry="10" width="199.5" height="119.5"/>
    <path id="blueback" style="fill :#003ABD; fill-rule :evenodd; stroke :none;" d="M 7,60 7,22 Q 7,20 10,19 L 98,5.1 Q 98,5 100,5 102,5 102,5.1 L 190,19 Q 193,20 193,22 L 193,98 Q 193,100 190,101 L 102,114.9 Q 102,115 100,115 98,115 98,114.9 L 10,101 Q 7,100 7,98"/>
    <path id="number661" style="fill :#FFFFFF; fill-rule :evenodd; stroke :none;" d="M 44.43,63.06 62.53,26.86 H 73.29 L 59.11,55.35 H 59.3 Q 61.42,54.47 64.42,54.47 70.7,54.47 75.64,58.95 80.54,63.48 80.54,73.27 80.54,84.9 74.35,89.89 68.16,94.83 60.64,94.83 53.48,94.83 47.66,89.38 41.84,83.93 41.84,74.33 41.84,68.19 44.43,63.06 z M 61.19,63.06 Q 57.08,63.06 54.31,65.74 51.49,68.56 51.49,74.14 51.49,85.23 61.19,85.23 64.51,85.23 67.7,82.69 70.84,80.19 70.84,74.14 70.84,68.51 68.02,65.74 65.21,63.06 61.19,63.06 z M 90.37,63.06 108.5,26.86 H 119.2 L 105.1,55.35 H 105.2 Q 107.4,54.47 110.4,54.47 116.6,54.47 121.6,58.95 126.5,63.48 126.5,73.27 126.5,84.9 120.3,89.89 114.1,94.83 106.6,94.83 99.42,94.83 93.6,89.38 87.79,83.93 87.79,74.33 87.79,68.19 90.37,63.06 z M 107.1,63.06 Q 103,63.06 100.3,65.74 97.44,68.56 97.44,74.14 97.44,85.23 107.1,85.23 110.5,85.23 113.6,82.69 116.8,80.19 116.8,74.14 116.8,68.51 114,65.74 111.2,63.06 107.1,63.06 z M 145.9,94.18 V 36.97 L 136.3,43.99 V 33.74 L 145.9,26.77 H 155.6 V 94.18 H 145.9 z"/>
</svg>