<?xml version="1.0" encoding="UTF-8" standalone="no"?>
<svg xmlns:svg="http://www.w3.org/2000/svg" xmlns="http://www.w3.org/2000/svg" version="1.1" width="400px" height="240px" viewBox="0 0 200 120">
	<defs/>
	<rect id="border" style="fill :#FFFFFF; fill-rule :evenodd; stroke :#000000; stroke-width :0.50;" x="0.25" y="0.25" rx="10" ry="10" width="199.5" height="119.5"/>
    <path id="blueback" style="fill :#003ABD; fill-rule :evenodd; stroke :none;" d="M 7,60 7,22 Q 7,20 10,19 L 98,5.1 Q 98,5 100,5 102,5 102,5.1 L 190,19 Q 193,20 193,22 L 193,98 Q 193,100 190,101 L 102,114.9 Q 102,115 100,115 98,115 98,114.9 L 10,101 Q 7,100 7,98"/>
    <path id="number067" style="fill :#FFFFFF; fill-rule :evenodd; stroke :none;" d="M 60.66,63.06 78.76,26.86 H 89.52 L 75.34,55.35 H 75.53 Q 77.65,54.47 80.65,54.47 86.93,54.47 91.87,58.95 96.77,63.48 96.77,73.27 96.77,84.9 90.58,89.89 84.39,94.83 76.87,94.83 69.71,94.83 63.89,89.38 58.07,83.93 58.07,74.33 58.07,68.19 60.66,63.06 z M 77.42,63.06 Q 73.31,63.06 70.54,65.74 67.72,68.56 67.72,74.14 67.72,85.23 77.42,85.23 80.75,85.23 83.93,82.69 87.07,80.19 87.07,74.14 87.07,68.51 84.25,65.74 81.44,63.06 77.42,63.06 z M 105.2,46.12 V 26.77 H 143.5 V 36.42 L 120.7,94.05 H 109.9 L 132.7,36.42 H 114.8 V 46.12 H 105.2 z"/>
</svg>