<?xml version="1.0" encoding="UTF-8" standalone="no"?>
<svg xmlns:svg="http://www.w3.org/2000/svg" xmlns="http://www.w3.org/2000/svg" version="1.1" width="400px" height="240px" viewBox="0 0 200 120">
	<defs/>
	<rect id="border" style="fill :#FFFFFF; fill-rule :evenodd; stroke :#000000; stroke-width :0.50;" x="0.25" y="0.25" rx="10" ry="10" width="199.5" height="119.5"/>
    <path id="blueback" style="fill :#003ABD; fill-rule :evenodd; stroke :none;" d="M 7,60 7,22 Q 7,20 10,19 L 98,5.1 Q 98,5 100,5 102,5 102,5.1 L 190,19 Q 193,20 193,22 L 193,98 Q 193,100 190,101 L 102,114.9 Q 102,115 100,115 98,115 98,114.9 L 10,101 Q 7,100 7,98"/>
    <path id="number071" style="fill :#FFFFFF; fill-rule :evenodd; stroke :none;" d="M 66.25,46.12 V 26.77 H 104.5 V 36.42 L 81.76,94.05 H 70.96 L 93.77,36.42 H 75.9 V 46.12 H 66.25 z M 122.6,94.18 V 36.97 L 113,43.99 V 33.74 L 122.6,26.77 H 132.3 V 94.18 H 122.6 z"/>
</svg>