<?xml version="1.0" encoding="UTF-8" standalone="no"?>
<svg xmlns:svg="http://www.w3.org/2000/svg" xmlns="http://www.w3.org/2000/svg" version="1.1" width="400px" height="240px" viewBox="0 0 200 120">
	<defs/>
	<rect id="border" style="fill :#FFFFFF; fill-rule :evenodd; stroke :#000000; stroke-width :0.50;" x="0.25" y="0.25" rx="10" ry="10" width="199.5" height="119.5"/>
    <path id="blueback" style="fill :#003ABD; fill-rule :evenodd; stroke :none;" d="M 7,60 7,22 Q 7,20 10,19 L 98,5.1 Q 98,5 100,5 102,5 102,5.1 L 190,19 Q 193,20 193,22 L 193,98 Q 193,100 190,101 L 102,114.9 Q 102,115 100,115 98,115 98,114.9 L 10,101 Q 7,100 7,98"/>
    <path id="number072" style="fill :#FFFFFF; fill-rule :evenodd; stroke :none;" d="M 59.5,46.12 V 26.77 H 97.78 V 36.42 L 75.02,94.05 H 64.21 L 87.02,36.42 H 69.16 V 46.12 H 59.5 z M 103.1,94.05 V 85 L 129.4,52.07 Q 130.9,50.13 131.4,48.52 131.9,46.9 131.9,45.38 131.9,41.87 129.4,38.87 126.9,35.87 122.6,35.82 118.7,35.82 115.9,38.41 113.1,40.99 112.7,45.56 H 103.1 Q 103.1,37.39 108.7,31.8 114.2,26.22 121.8,26.17 130.2,26.17 135.8,31.8 141.4,37.44 141.5,45.47 141.5,52.3 137.4,57.29 L 115.8,84.44 H 141.5 V 94.05 H 103.1 z"/>
</svg>