<?xml version="1.0" encoding="UTF-8" standalone="no"?>
<!DOCTYPE svg PUBLIC "-//W3C//DTD SVG 1.1//EN" "http://www.w3.org/Graphics/SVG/1.1/DTD/svg11.dtd">
<svg xmlns:svg="http://www.w3.org/2000/svg" xmlns="http://www.w3.org/2000/svg" version="1.1" width="400px" height="240px" viewBox="0 0 200 120">
	<defs/>
	<rect id="border" style="fill :#FFFFFF; fill-rule :evenodd; stroke :#000000; stroke-width :0.50;" x="0.25" y="0.25" rx="10" ry="10" width="199.5" height="119.5"/>
    <path id="blueback" style="fill :#003ABD; fill-rule :evenodd; stroke :none;" d="M 7,60 7,22 Q 7,20 10,19 L 98,5.1 Q 98,5 100,5 102,5 102,5.1 L 190,19 Q 193,20 193,22 L 193,98 Q 193,100 190,101 L 102,114.9 Q 102,115 100,115 98,115 98,114.9 L 10,101 Q 7,100 7,98"/>
    <path id="number081" style="fill :#FFFFFF; fill-rule :evenodd; stroke :none;" d="M 74.47,45.47 Q 74.47,50.23 77.42,52.67 80.38,55.12 84.12,55.12 87.81,55.12 90.76,52.67 93.72,50.23 93.77,45.47 93.77,40.76 90.81,38.31 87.86,35.87 84.12,35.82 80.42,35.82 77.47,38.27 74.51,40.71 74.47,45.47 z M 63.61,74.42 Q 63.61,64.59 71.56,59.28 68.55,56.6 66.71,53.37 64.86,50.13 64.81,45.65 64.81,37.53 70.36,31.85 75.9,26.17 84.12,26.17 92.29,26.17 97.83,31.85 103.4,37.53 103.4,45.65 103.4,50.09 101.5,53.32 99.63,56.55 96.72,59.28 104.6,64.63 104.6,74.42 104.6,83.38 98.57,88.97 92.52,94.55 84.12,94.6 75.71,94.6 69.66,89.01 63.61,83.43 63.61,74.42 z M 73.26,74.33 Q 73.26,78.95 76.5,81.95 79.73,84.95 84.12,85 88.41,85 91.69,81.99 94.97,78.99 95.01,74.33 95.01,69.71 91.73,66.66 88.46,63.62 84.12,63.62 79.78,63.62 76.54,66.66 73.31,69.71 73.26,74.33 z M 122.6,94.18 V 36.97 L 113,43.99 V 33.74 L 122.6,26.77 H 132.3 V 94.18 H 122.6 z"/>
</svg>