<?xml version="1.0" encoding="UTF-8" standalone="no"?>
<!DOCTYPE svg PUBLIC "-//W3C//DTD SVG 1.1//EN" "http://www.w3.org/Graphics/SVG/1.1/DTD/svg11.dtd">
<svg xmlns:svg="http://www.w3.org/2000/svg" xmlns="http://www.w3.org/2000/svg" version="1.1" width="400px" height="240px" viewBox="0 0 200 120">
	<defs/>
	<rect id="border" style="fill :#FFFFFF; fill-rule :evenodd; stroke :#000000; stroke-width :0.50;" x="0.25" y="0.25" rx="10" ry="10" width="199.5" height="119.5"/>
    <path id="blueback" style="fill :#003ABD; fill-rule :evenodd; stroke :none;" d="M 7,60 7,22 Q 7,20 10,19 L 98,5.1 Q 98,5 100,5 102,5 102,5.1 L 190,19 Q 193,20 193,22 L 193,98 Q 193,100 190,101 L 102,114.9 Q 102,115 100,115 98,115 98,114.9 L 10,101 Q 7,100 7,98"/>
    <path id="number831" style="fill :#FFFFFF; fill-rule :evenodd; stroke :none;" d="M 51.77,45.47 Q 51.77,50.23 54.73,52.67 57.68,55.12 61.42,55.12 65.11,55.12 68.07,52.67 71.03,50.23 71.07,45.47 71.07,40.76 68.12,38.31 65.16,35.87 61.42,35.82 57.73,35.82 54.77,38.27 51.82,40.71 51.77,45.47 z M 40.92,74.42 Q 40.92,64.59 48.86,59.28 45.86,56.6 44.01,53.37 42.17,50.13 42.12,45.65 42.12,37.53 47.66,31.85 53.2,26.17 61.42,26.17 69.59,26.17 75.13,31.85 80.68,37.53 80.72,45.65 80.72,50.09 78.83,53.32 76.94,56.55 74.03,59.28 81.92,64.63 81.92,74.42 81.92,83.38 75.87,88.97 69.82,94.55 61.42,94.6 53.02,94.6 46.97,89.01 40.92,83.43 40.92,74.42 z M 50.57,74.33 Q 50.57,78.95 53.8,81.95 57.03,84.95 61.42,85 65.72,85 68.99,81.99 72.27,78.99 72.32,74.33 72.32,69.71 69.04,66.66 65.76,63.62 61.42,63.62 57.08,63.62 53.85,66.66 50.62,69.71 50.57,74.33 z M 100.8,63.62 V 55.12 H 104.1 Q 108.9,55.12 111.7,52.44 114.4,49.76 114.5,45.56 114.5,41.45 111.6,38.64 108.7,35.82 104.6,35.82 101.6,35.82 98.87,37.85 96.14,39.88 95.36,43.95 H 85.71 Q 86.26,36.84 91.67,31.53 97.07,26.22 104.3,26.17 113.3,26.17 118.7,32.08 124.1,37.99 124.1,45.38 124.1,49.26 122.6,52.9 121.1,56.55 116.9,59.28 121.2,62 123,65.97 124.9,69.94 124.9,74.01 124.9,83.43 119,89.01 113,94.6 104.5,94.6 97.62,94.6 92.17,90.21 86.72,85.83 85.34,77.33 H 94.99 Q 96.33,80.79 98.59,82.87 100.9,84.95 105,85 109,85 112.1,82.18 115.2,79.36 115.2,74.33 115.2,69.3 112.2,66.48 109.1,63.66 104.8,63.62 H 100.8 z M 145.3,94.18 V 36.97 L 135.7,43.99 V 33.74 L 145.3,26.77 H 155 V 94.18 H 145.3 z"/>
</svg>