<?xml version="1.0" encoding="UTF-8" standalone="no"?>
<!DOCTYPE svg PUBLIC "-//W3C//DTD SVG 1.1//EN" "http://www.w3.org/Graphics/SVG/1.1/DTD/svg11.dtd">
<svg xmlns:svg="http://www.w3.org/2000/svg" xmlns="http://www.w3.org/2000/svg" version="1.1" width="400px" height="240px" viewBox="0 0 200 120">
	<defs/>
	<rect id="border" style="fill :#FFFFFF; fill-rule :evenodd; stroke :#000000; stroke-width :0.50;" x="0.25" y="0.25" rx="10" ry="10" width="199.5" height="119.5"/>
    <path id="blueback" style="fill :#003ABD; fill-rule :evenodd; stroke :none;" d="M 7,60 7,22 Q 7,20 10,19 L 98,5.1 Q 98,5 100,5 102,5 102,5.1 L 190,19 Q 193,20 193,22 L 193,98 Q 193,100 190,101 L 102,114.9 Q 102,115 100,115 98,115 98,114.9 L 10,101 Q 7,100 7,98"/>
    <path id="number864" style="fill :#FFFFFF; fill-rule :evenodd; stroke :none;" d="M 44.75,45.47 Q 44.75,50.23 47.71,52.67 50.66,55.12 54.4,55.12 58.1,55.12 61.05,52.67 64.01,50.23 64.05,45.47 64.05,40.76 61.1,38.31 58.14,35.87 54.4,35.82 50.71,35.82 47.75,38.27 44.8,40.71 44.75,45.47 z M 33.9,74.42 Q 33.9,64.59 41.84,59.28 38.84,56.6 36.99,53.37 35.15,50.13 35.1,45.65 35.1,37.53 40.64,31.85 46.18,26.17 54.4,26.17 62.58,26.17 68.12,31.85 73.66,37.53 73.7,45.65 73.7,50.09 71.81,53.32 69.92,56.55 67.01,59.28 74.9,64.63 74.9,74.42 74.9,83.38 68.85,88.97 62.81,94.55 54.4,94.6 46,94.6 39.95,89.01 33.9,83.43 33.9,74.42 z M 43.55,74.33 Q 43.55,78.95 46.78,81.95 50.02,84.95 54.4,85 58.7,85 61.97,81.99 65.25,78.99 65.3,74.33 65.3,69.71 62.02,66.66 58.74,63.62 54.4,63.62 50.06,63.62 46.83,66.66 43.6,69.71 43.55,74.33 z M 83.35,63.06 101.5,26.86 H 112.2 L 98.04,55.35 H 98.22 Q 100.3,54.47 103.3,54.47 109.6,54.47 114.6,58.95 119.5,63.48 119.5,73.27 119.5,84.9 113.3,89.89 107.1,94.83 99.56,94.83 92.4,94.83 86.59,89.38 80.77,83.93 80.77,74.33 80.77,68.19 83.35,63.06 z M 100.1,63.06 Q 96.01,63.06 93.24,65.74 90.42,68.56 90.42,74.14 90.42,85.23 100.1,85.23 103.4,85.23 106.6,82.69 109.8,80.19 109.8,74.14 109.8,68.51 106.9,65.74 104.1,63.06 100.1,63.06 z M 124.2,84.07 V 74.98 L 146.7,26.77 H 157.5 L 134.7,74.98 H 152.2 V 55.58 H 161.9 V 74.98 H 167.3 V 84.07 H 161.9 V 94.05 H 152.2 V 84.07 H 124.2 z"/>
</svg>