<?xml version="1.0" encoding="UTF-8" standalone="no"?>
<svg xmlns:svg="http://www.w3.org/2000/svg" xmlns="http://www.w3.org/2000/svg" version="1.1" width="400px" height="240px" viewBox="0 0 200 120">
	<defs/>
	<rect x="0.25" y="0.25" rx="10" ry="10" width="199.5" height="119.5" style="fill :#FFFFFF;stroke :#000000;stroke-width :0.50"/>
    <path d="M 7,60 7,22 Q 7,20 10,19 L 98,5.1 Q 98,5 100,5 102,5 102,5.1 L 190,19 Q 193,20 193,22 L 193,98 Q 193,100 190,101 L 102,114.9 Q 102,115 100,115 98,115 98,114.9 L 10,101 Q 7,100 7,98" style="fill :#003ABD;stroke :none;"/>
    <path d="M 116.9,58.08 98.78,94.28 H 87.97 L 102.2,65.79 H 102 Q 99.7,66.66 96.88,66.66 90.42,66.66 85.62,62.19 80.77,57.75 80.77,47.87 80.77,36.28 86.91,31.29 93.1,26.26 100.7,26.26 107.7,26.26 113.6,31.8 119.5,37.34 119.5,46.86 119.5,53 116.9,58.08 z M 100.1,58.08 Q 104.1,58.08 106.9,55.4 109.8,52.81 109.8,47.04 109.8,35.91 100.1,35.91 96.74,35.91 93.6,38.45 90.42,41.04 90.42,47.04 90.42,52.77 93.24,55.4 96.01,58.08 100.1,58.08 z" style="fill :#FFFFFF;fill-rule :evenodd; stroke :none;"/>
</svg>