<?xml version="1.0" encoding="UTF-8" standalone="no"?>
<!DOCTYPE svg PUBLIC "-//W3C//DTD SVG 1.1//EN" "http://www.w3.org/Graphics/SVG/1.1/DTD/svg11.dtd">
<svg xmlns:svg="http://www.w3.org/2000/svg" xmlns="http://www.w3.org/2000/svg" version="1.1" width="400px" height="240px" viewBox="0 0 200 120">
	<defs/>
	<rect id="border" style="fill :#FFFFFF; fill-rule :evenodd; stroke :#000000; stroke-width :0.50;" x="0.25" y="0.25" rx="10" ry="10" width="199.5" height="119.5"/>
    <path id="blueback" style="fill :#003ABD; fill-rule :evenodd; stroke :none;" d="M 7,60 7,22 Q 7,20 10,19 L 98,5.1 Q 98,5 100,5 102,5 102,5.1 L 190,19 Q 193,20 193,22 L 193,98 Q 193,100 190,101 L 102,114.9 Q 102,115 100,115 98,115 98,114.9 L 10,101 Q 7,100 7,98"/>
    <path id="number092" style="fill :#FFFFFF; fill-rule :evenodd; stroke :none;" d="M 94.18,58.08 76.08,94.28 H 65.28 L 79.5,65.79 H 79.31 Q 77,66.66 74.19,66.66 67.72,66.66 62.92,62.19 58.07,57.75 58.07,47.87 58.07,36.28 64.21,31.29 70.4,26.26 77.97,26.26 84.99,26.26 90.9,31.8 96.77,37.34 96.77,46.86 96.77,53 94.18,58.08 z M 77.42,58.08 Q 81.44,58.08 84.25,55.4 87.07,52.81 87.07,47.04 87.07,35.91 77.42,35.91 74.05,35.91 70.91,38.45 67.72,41.04 67.72,47.04 67.72,52.77 70.54,55.4 73.31,58.08 77.42,58.08 z M 103.4,94.05 V 85 L 129.7,52.07 Q 131.2,50.13 131.7,48.52 132.1,46.9 132.1,45.38 132.1,41.87 129.6,38.87 127.2,35.87 122.9,35.82 118.9,35.82 116.2,38.41 113.4,40.99 113,45.56 H 103.4 Q 103.4,37.39 109,31.8 114.5,26.22 122.1,26.17 130.5,26.17 136.1,31.8 141.7,37.44 141.7,45.47 141.7,52.3 137.7,57.29 L 116.1,84.44 H 141.7 V 94.05 H 103.4 z"/>
</svg>