<?xml version="1.0" encoding="UTF-8" standalone="no"?>
<!DOCTYPE svg PUBLIC "-//W3C//DTD SVG 1.1//EN" "http://www.w3.org/Graphics/SVG/1.1/DTD/svg11.dtd">
<svg xmlns:svg="http://www.w3.org/2000/svg" xmlns="http://www.w3.org/2000/svg" version="1.1" width="400px" height="240px" viewBox="0 0 200 120">
	<defs/>
	<rect id="border" style="fill :#FFFFFF; fill-rule :evenodd; stroke :#000000; stroke-width :0.50;" x="0.25" y="0.25" rx="10" ry="10" width="199.5" height="119.5"/>
    <path id="blueback" style="fill :#003ABD; fill-rule :evenodd; stroke :none;" d="M 7,60 7,22 Q 7,20 10,19 L 98,5.1 Q 98,5 100,5 102,5 102,5.1 L 190,19 Q 193,20 193,22 L 193,98 Q 193,100 190,101 L 102,114.9 Q 102,115 100,115 98,115 98,114.9 L 10,101 Q 7,100 7,98"/>
    <path id="number093" style="fill :#FFFFFF; fill-rule :evenodd; stroke :none;" d="M 94.18,58.08 76.08,94.28 H 65.28 L 79.5,65.79 H 79.31 Q 77,66.66 74.19,66.66 67.72,66.66 62.92,62.19 58.07,57.75 58.07,47.87 58.07,36.28 64.21,31.29 70.4,26.26 77.97,26.26 84.99,26.26 90.9,31.8 96.77,37.34 96.77,46.86 96.77,53 94.18,58.08 z M 77.42,58.08 Q 81.44,58.08 84.25,55.4 87.07,52.81 87.07,47.04 87.07,35.91 77.42,35.91 74.05,35.91 70.91,38.45 67.72,41.04 67.72,47.04 67.72,52.77 70.54,55.4 73.31,58.08 77.42,58.08 z M 117,63.62 V 55.12 H 120.3 Q 125.1,55.12 127.9,52.44 130.7,49.76 130.7,45.56 130.7,41.45 127.8,38.64 124.9,35.82 120.9,35.82 117.8,35.82 115.1,37.85 112.4,39.88 111.6,43.95 H 101.9 Q 102.5,36.84 107.9,31.53 113.3,26.22 120.5,26.17 129.5,26.17 134.9,32.08 140.3,37.99 140.4,45.38 140.4,49.26 138.8,52.9 137.3,56.55 133.2,59.28 137.4,62 139.2,65.97 141.1,69.94 141.1,74.01 141.1,83.43 135.2,89.01 129.3,94.6 120.7,94.6 113.9,94.6 108.4,90.21 103,85.83 101.6,77.33 H 111.2 Q 112.6,80.79 114.8,82.87 117.1,84.95 121.2,85 125.3,85 128.4,82.18 131.4,79.36 131.4,74.33 131.4,69.3 128.4,66.48 125.4,63.66 121.1,63.62 H 117 z"/>
</svg>