<?xml version="1.0" encoding="UTF-8" standalone="no"?>
<!DOCTYPE svg PUBLIC "-//W3C//DTD SVG 1.1//EN" "http://www.w3.org/Graphics/SVG/1.1/DTD/svg11.dtd">
<svg xmlns:svg="http://www.w3.org/2000/svg" xmlns="http://www.w3.org/2000/svg" version="1.1" width="400px" height="240px" viewBox="0 0 200 120">
	<defs/>
	<rect id="border" style="fill :#FFFFFF; fill-rule :evenodd; stroke :#000000; stroke-width :0.50;" x="0.25" y="0.25" rx="10" ry="10" width="199.5" height="119.5"/>
    <path id="blueback" style="fill :#003ABD; fill-rule :evenodd; stroke :none;" d="M 7,60 7,22 Q 7,20 10,19 L 98,5.1 Q 98,5 100,5 102,5 102,5.1 L 190,19 Q 193,20 193,22 L 193,98 Q 193,100 190,101 L 102,114.9 Q 102,115 100,115 98,115 98,114.9 L 10,101 Q 7,100 7,98"/>
    <path id="number094" style="fill :#FFFFFF; fill-rule :evenodd; stroke :none;" d="M 94.18,58.08 76.08,94.28 H 65.28 L 79.5,65.79 H 79.31 Q 77,66.66 74.19,66.66 67.72,66.66 62.92,62.19 58.07,57.75 58.07,47.87 58.07,36.28 64.21,31.29 70.4,26.26 77.97,26.26 84.99,26.26 90.9,31.8 96.77,37.34 96.77,46.86 96.77,53 94.18,58.08 z M 77.42,58.08 Q 81.44,58.08 84.25,55.4 87.07,52.81 87.07,47.04 87.07,35.91 77.42,35.91 74.05,35.91 70.91,38.45 67.72,41.04 67.72,47.04 67.72,52.77 70.54,55.4 73.31,58.08 77.42,58.08 z M 101.5,84.07 V 74.98 L 124,26.77 H 134.8 L 112,74.98 H 129.6 V 55.58 H 139.2 V 74.98 H 144.6 V 84.07 H 139.2 V 94.05 H 129.6 V 84.07 H 101.5 z"/>
</svg>