<?xml version="1.0" encoding="UTF-8" standalone="no"?>
<!DOCTYPE svg PUBLIC "-//W3C//DTD SVG 1.1//EN" "http://www.w3.org/Graphics/SVG/1.1/DTD/svg11.dtd">
<svg xmlns:svg="http://www.w3.org/2000/svg" xmlns="http://www.w3.org/2000/svg" version="1.1" width="400px" height="240px" viewBox="0 0 200 120">
	<defs/>
	<rect id="border" style="fill :#FFFFFF; fill-rule :evenodd; stroke :#000000; stroke-width :0.50;" x="0.25" y="0.25" rx="10" ry="10" width="199.5" height="119.5"/>
    <path id="blueback" style="fill :#003ABD; fill-rule :evenodd; stroke :none;" d="M 7,60 7,22 Q 7,20 10,19 L 98,5.1 Q 98,5 100,5 102,5 102,5.1 L 190,19 Q 193,20 193,22 L 193,98 Q 193,100 190,101 L 102,114.9 Q 102,115 100,115 98,115 98,114.9 L 10,101 Q 7,100 7,98"/>
    <path id="number098" style="fill :#FFFFFF; fill-rule :evenodd; stroke :none;" d="M 94.18,58.08 76.08,94.28 H 65.28 L 79.5,65.79 H 79.31 Q 77,66.66 74.19,66.66 67.72,66.66 62.92,62.19 58.07,57.75 58.07,47.87 58.07,36.28 64.21,31.29 70.4,26.26 77.97,26.26 84.99,26.26 90.9,31.8 96.77,37.34 96.77,46.86 96.77,53 94.18,58.08 z M 77.42,58.08 Q 81.44,58.08 84.25,55.4 87.07,52.81 87.07,47.04 87.07,35.91 77.42,35.91 74.05,35.91 70.91,38.45 67.72,41.04 67.72,47.04 67.72,52.77 70.54,55.4 73.31,58.08 77.42,58.08 z M 113.4,45.47 Q 113.4,50.23 116.3,52.67 119.3,55.12 123,55.12 126.7,55.12 129.7,52.67 132.6,50.23 132.7,45.47 132.7,40.76 129.7,38.31 126.8,35.87 123,35.82 119.3,35.82 116.4,38.27 113.4,40.71 113.4,45.47 z M 102.5,74.42 Q 102.5,64.59 110.5,59.28 107.5,56.6 105.6,53.37 103.8,50.13 103.7,45.65 103.7,37.53 109.3,31.85 114.8,26.17 123,26.17 131.2,26.17 136.8,31.85 142.3,37.53 142.3,45.65 142.3,50.09 140.4,53.32 138.6,56.55 135.6,59.28 143.5,64.63 143.5,74.42 143.5,83.38 137.5,88.97 131.4,94.55 123,94.6 114.6,94.6 108.6,89.01 102.5,83.43 102.5,74.42 z M 112.2,74.33 Q 112.2,78.95 115.4,81.95 118.7,84.95 123,85 127.3,85 130.6,81.99 133.9,78.99 133.9,74.33 133.9,69.71 130.7,66.66 127.4,63.62 123,63.62 118.7,63.62 115.5,66.66 112.2,69.71 112.2,74.33 z"/>
</svg>