<?xml version="1.0" encoding="UTF-8" standalone="no"?>
<!DOCTYPE svg PUBLIC "-//W3C//DTD SVG 1.1//EN" "http://www.w3.org/Graphics/SVG/1.1/DTD/svg11.dtd">
<svg xmlns:svg="http://www.w3.org/2000/svg" xmlns="http://www.w3.org/2000/svg" version="1.1" width="400px" height="240px" viewBox="0 0 200 120">
	<defs/>
	<rect id="border" style="fill :#FFFFFF; fill-rule :evenodd; stroke :#000000; stroke-width :0.50;" x="0.25" y="0.25" rx="10" ry="10" width="199.5" height="119.5"/>
    <path id="blueback" style="fill :#003ABD; fill-rule :evenodd; stroke :none;" d="M 7,60 7,22 Q 7,20 10,19 L 98,5.1 Q 98,5 100,5 102,5 102,5.1 L 190,19 Q 193,20 193,22 L 193,98 Q 193,100 190,101 L 102,114.9 Q 102,115 100,115 98,115 98,114.9 L 10,101 Q 7,100 7,98"/>
    <path id="number099" style="fill :#FFFFFF; fill-rule :evenodd; stroke :none;" d="M 93.9,58.08 75.8,94.28 H 65 L 79.22,65.79 H 79.04 Q 76.73,66.66 73.91,66.66 67.45,66.66 62.64,62.19 57.8,57.75 57.8,47.87 57.8,36.28 63.94,31.29 70.12,26.26 77.7,26.26 84.72,26.26 90.63,31.8 96.49,37.34 96.49,46.86 96.49,53 93.9,58.08 z M 77.14,58.08 Q 81.16,58.08 83.98,55.4 86.79,52.81 86.79,47.04 86.79,35.91 77.14,35.91 73.77,35.91 70.63,38.45 67.45,41.04 67.45,47.04 67.45,52.77 70.26,55.4 73.03,58.08 77.14,58.08 z M 139.8,58.08 121.7,94.28 H 110.9 L 125.2,65.79 H 125 Q 122.7,66.66 119.9,66.66 113.4,66.66 108.6,62.19 103.7,57.75 103.7,47.87 103.7,36.28 109.9,31.29 116.1,26.26 123.6,26.26 130.7,26.26 136.6,31.8 142.4,37.34 142.4,46.86 142.4,53 139.8,58.08 z M 123.1,58.08 Q 127.1,58.08 129.9,55.4 132.7,52.81 132.7,47.04 132.7,35.91 123.1,35.91 119.7,35.91 116.6,38.45 113.4,41.04 113.4,47.04 113.4,52.77 116.2,55.4 119,58.08 123.1,58.08 z"/>
</svg>