<?xml version="1.0" encoding="UTF-8" standalone="no"?>
<svg xmlns:svg="http://www.w3.org/2000/svg" xmlns="http://www.w3.org/2000/svg" version="1.1" width="200px" height="120px" viewBox="-100 0 200 120">
	<defs/>
	<g style="stroke :none; fill-rule :evenodd;">
		<rect style="fill :#F0CA00;" x="-100.00" y="0.00" width="200.0" height="120.0" rx="22.25" ry="22.25"/>
		<rect style="fill :#000000;" x="-95.75" y="4.25" width="191.5" height="111.5" rx="18.00" ry="18.00"/>
		<rect style="fill :#F0CA00;" x="-88.75" y="11.25" width="177.5" height="97.5" rx="11.00" ry="11.00"/>
		<path transform="translate(-48.0,0)" id="PfadH" style="fill :#000000;" d="M -0.069,94.185 V 36.974 L -9.674,43.992 V 33.742 L -0.069,26.769 H 9.63 V 94.185 H -0.069 z"/>
		<path transform="translate( -9.0,0)" id="PfadZ" style="fill :#000000;" d="M 9.54,74.699 L 9.54,46.116 Q 9.54,41.268 6.95,38.544 4.36,35.819 0.07,35.819 -4.225,35.819 -6.811,38.544 -9.397,41.268 -9.397,46.116 L -9.397,74.699 Q -9.397,79.593 -6.811,82.272 -4.225,84.95 0.07,84.996 4.32,84.996 6.9,82.318 9.49,79.64 9.54,74.699 z M -19.047,75.253 L -19.047,45.562 Q -19.047,36.281 -13.229,31.248 -7.411,26.215 0.07,26.169 7.5,26.169 13.32,31.202 19.14,36.235 19.19,45.562 L 19.19,75.253 Q 19.19,84.534 13.37,89.567 7.55,94.6 0.07,94.6 -7.411,94.6 -13.229,89.567 -19.047,84.534 -19.047,75.253 z"/>
		<path transform="translate( 39.0,0)" id="PfadE" style="fill :#000000;" d="M -17.8,46.116 V -17.8,26.769 L 20.48,26.769 L 20.48,36.42 L -2.286,94.046 L -13.091,94.046 L 9.72,36.42 L -8.15,36.42 L -8.15,46.116 L -17.8,46.116 z"/>
	</g>
</svg>