<?xml version="1.0" encoding="UTF-8" standalone="no"?>
<svg xmlns:svg="http://www.w3.org/2000/svg" xmlns="http://www.w3.org/2000/svg" version="1.1" width="200px" height="120px" viewBox="-100 0 200 120">
	<defs/>
	<g style="stroke :none; fill-rule :evenodd;">
		<rect style="fill :#F0CA00;" x="-100.00" y="0.00" width="200.0" height="120.0" rx="22.25" ry="22.25"/>
		<rect style="fill :#000000;" x="-95.75" y="4.25" width="191.5" height="111.5" rx="18.00" ry="18.00"/>
		<rect style="fill :#F0CA00;" x="-88.75" y="11.25" width="177.5" height="97.5" rx="11.00" ry="11.00"/>
		<path transform="translate(-24.0,0)" id="PfadZ" style="fill :#000000;" d="M -0.069,94.185 V 36.974 L -9.674,43.992 V 33.742 L -0.069,26.769 H 9.63 V 94.185 H -0.069 z"/>
		<path transform="translate( 15.0,0)" id="PfadE" style="fill :#000000;" d="M -19.601,94.046 L -19.601,84.996 L 6.72,52.073 Q 8.24,50.134 8.7,48.518 9.17,46.901 9.17,45.378 9.17,41.868 6.67,38.867 4.18,35.866 -0.115,35.819 -4.04,35.819 -6.811,38.405 -9.581,40.991 -9.951,45.562 L -19.601,45.562 Q -19.555,37.389 -14.014,31.802 -8.473,26.215 -0.854,26.169 7.55,26.169 13.14,31.802 18.72,37.436 18.77,45.47 18.77,52.304 14.75,57.291 L -6.903,84.442 L 18.77,84.442 L 18.77,94.046 L -19.601,94.046 z"/>
	</g>
</svg>