<?xml version="1.0" encoding="UTF-8" standalone="no"?>
<svg xmlns:svg="http://www.w3.org/2000/svg" xmlns="http://www.w3.org/2000/svg" version="1.1" width="200px" height="120px" viewBox="-100 0 200 120">
	<defs/>
	<g style="stroke :none; fill-rule :evenodd;">
		<rect style="fill :#F0CA00;" x="-100.00" y="0.00" width="200.0" height="120.0" rx="22.25" ry="22.25"/>
		<rect style="fill :#000000;" x="-95.75" y="4.25" width="191.5" height="111.5" rx="18.00" ry="18.00"/>
		<rect style="fill :#F0CA00;" x="-88.75" y="11.25" width="177.5" height="97.5" rx="11.00" ry="11.00"/>
		<path transform="translate(-48.0,0)" id="PfadH" style="fill :#000000;" d="M -0.069,94.185 V 36.974 L -9.674,43.992 V 33.742 L -0.069,26.769 H 9.63 V 94.185 H -0.069 z"/>
		<path transform="translate( -9.0,0)" id="PfadZ" style="fill :#000000;" d="M -16.646,63.063 L 1.45,26.861 L 12.21,26.861 L -1.962,55.351 L -1.778,55.351 Q 0.35,54.474 3.35,54.474 9.63,54.474 14.57,58.953 19.46,63.478 19.46,73.267 19.46,84.904 13.28,89.89 7.09,94.831 -0.439,94.831 -7.596,94.831 -13.414,89.382 -19.232,83.934 -19.232,74.329 -19.232,68.188 -16.646,63.063 z M 0.12,63.063 Q -3.994,63.063 -6.765,65.741 -9.581,68.558 -9.581,74.145 -9.581,85.227 0.12,85.227 3.44,85.227 6.63,82.687 9.77,80.194 9.77,74.145 9.77,68.511 6.95,65.741 4.13,63.063 0.12,63.063 z"/>
		<path transform="translate( 39.0,0)" id="PfadE" style="fill :#000000;" d="M 16.88,58.076 L -1.224,94.277 L -12.029,94.277 L 2.19,65.787 L 2.01,65.787 Q -0.3,66.664 -3.117,66.664 -9.581,66.664 -14.384,62.185 -19.232,57.753 -19.232,47.871 -19.232,36.281 -13.091,31.294 -6.903,26.261 0.67,26.261 7.69,26.261 13.6,31.802 19.46,37.343 19.46,46.855 19.46,52.997 16.88,58.076 z M 0.12,58.076 Q 4.13,58.076 6.95,55.398 9.77,52.812 9.77,47.04 9.77,35.912 0.12,35.912 -3.255,35.912 -6.395,38.451 -9.581,41.037 -9.581,47.04 -9.581,52.766 -6.765,55.398 -3.994,58.076 0.12,58.076 z"/>
	</g>
</svg>