<?xml version="1.0" encoding="UTF-8" standalone="no"?>
<svg xmlns="http://www.w3.org/2000/svg" width="200" height="120">
<rect fill="#F0CA00" width="200" height="120" rx="22.25"/>
<rect fill="none" stroke="#000" stroke-width="7" x="7.5" y="7.5" width="185" height="105" rx="16"/>
<path transform="translate(52,0)" id="PfadH" d="M-.069,94.185V36.974L-9.674,43.992V33.742L-.069,26.769H9.63V94.185H-.069z"/>
<path transform="translate(91,0)" id="PfadZ" d="M16.88,58.076L-1.224,94.277L-12.029,94.277L2.19,65.787L2.01,65.787Q-.3,66.664-3.117,66.664-9.581,66.664-14.384,62.185-19.232,57.753-19.232,47.871-19.232,36.281-13.091,31.294-6.903,26.261 .67,26.261 7.69,26.261 13.6,31.802 19.46,37.343 19.46,46.855 19.46,52.997 16.88,58.076zM.12,58.076Q4.13,58.076 6.95,55.398 9.77,52.812 9.77,47.04 9.77,35.912 .12,35.912-3.255,35.912-6.395,38.451-9.581,41.037-9.581,47.04-9.581,52.766-6.765,55.398-3.994,58.076 .12,58.076z"/>
<path transform="translate(139,0)" id="PfadE" d="M16.88,58.076L-1.224,94.277L-12.029,94.277L2.19,65.787L2.01,65.787Q-.3,66.664-3.117,66.664-9.581,66.664-14.384,62.185-19.232,57.753-19.232,47.871-19.232,36.281-13.091,31.294-6.903,26.261 .67,26.261 7.69,26.261 13.6,31.802 19.46,37.343 19.46,46.855 19.46,52.997 16.88,58.076 z M .12,58.076Q4.13,58.076 6.95,55.398 9.77,52.812 9.77,47.04 9.77,35.912 .12,35.912-3.255,35.912-6.395,38.451-9.581,41.037-9.581,47.04-9.581,52.766-6.765,55.398-3.994,58.076 .12,58.076z"/>
</svg>