<?xml version="1.0" encoding="UTF-8" standalone="no"?>
<svg xmlns:svg="http://www.w3.org/2000/svg" xmlns="http://www.w3.org/2000/svg" version="1.1" width="200px" height="120px" viewBox="-100 0 200 120">
	<defs/>
	<g style="stroke :none; fill-rule :evenodd;">
		<rect style="fill :#F0CA00;" x="-100.00" y="0.00" width="200.0" height="120.0" rx="22.25" ry="22.25"/>
		<rect style="fill :#000000;" x="-95.75" y="4.25" width="191.5" height="111.5" rx="18.00" ry="18.00"/>
		<rect style="fill :#F0CA00;" x="-88.75" y="11.25" width="177.5" height="97.5" rx="11.00" ry="11.00"/>
		<path transform="translate(-48.0,0)" id="PfadH" style="fill :#000000;" d="M -19.601,94.046 L -19.601,84.996 L 6.72,52.073 Q 8.24,50.134 8.7,48.518 9.17,46.901 9.17,45.378 9.17,41.868 6.67,38.867 4.18,35.866 -0.115,35.819 -4.04,35.819 -6.811,38.405 -9.581,40.991 -9.951,45.562 L -19.601,45.562 Q -19.555,37.389 -14.014,31.802 -8.473,26.215 -0.854,26.169 7.55,26.169 13.14,31.802 18.72,37.436 18.77,45.47 18.77,52.304 14.75,57.291 L -6.903,84.442 L 18.77,84.442 L 18.77,94.046 L -19.601,94.046 z"/>
		<path transform="translate(  0.0,0)" id="PfadZ" style="fill :#000000;" d="M -16.646,63.063 L 1.45,26.861 L 12.21,26.861 L -1.962,55.351 L -1.778,55.351 Q 0.35,54.474 3.35,54.474 9.63,54.474 14.57,58.953 19.46,63.478 19.46,73.267 19.46,84.904 13.28,89.89 7.09,94.831 -0.439,94.831 -7.596,94.831 -13.414,89.382 -19.232,83.934 -19.232,74.329 -19.232,68.188 -16.646,63.063 z M 0.12,63.063 Q -3.994,63.063 -6.765,65.741 -9.581,68.558 -9.581,74.145 -9.581,85.227 0.12,85.227 3.44,85.227 6.63,82.687 9.77,80.194 9.77,74.145 9.77,68.511 6.95,65.741 4.13,63.063 0.12,63.063 z"/>
		<path transform="translate( 48.0,0)" id="PfadE" style="fill :#000000;" d="M -16.646,63.063 L 1.45,26.861 L 12.21,26.861 L -1.962,55.351 L -1.778,55.351 Q 0.35,54.474 3.35,54.474 9.63,54.474 14.57,58.953 19.46,63.478 19.46,73.267 19.46,84.904 13.28,89.89 7.09,94.831 -0.439,94.831 -7.596,94.831 -13.414,89.382 -19.232,83.934 -19.232,74.329 -19.232,68.188 -16.646,63.063 z M 0.12,63.063 Q -3.994,63.063 -6.765,65.741 -9.581,68.558 -9.581,74.145 -9.581,85.227 0.12,85.227 3.44,85.227 6.63,82.687 9.77,80.194 9.77,74.145 9.77,68.511 6.95,65.741 4.13,63.063 0.12,63.063 z"/>
	</g>
</svg>