<?xml version="1.0" encoding="UTF-8" standalone="no"?>
<svg xmlns:svg="http://www.w3.org/2000/svg" xmlns="http://www.w3.org/2000/svg" version="1.1" width="200px" height="120px" viewBox="-100 0 200 120">
	<defs/>
	<g style="stroke :none; fill-rule :evenodd;">
		<rect style="fill :#F0CA00;" x="-100.00" y="0.00" width="200.0" height="120.0" rx="22.25" ry="22.25"/>
		<rect style="fill :#000000;" x="-95.75" y="4.25" width="191.5" height="111.5" rx="18.00" ry="18.00"/>
		<rect style="fill :#F0CA00;" x="-88.75" y="11.25" width="177.5" height="97.5" rx="11.00" ry="11.00"/>
		<path transform="translate(-48.0,0)" id="PfadZ" style="fill :#000000;" d="M -19.601,94.046 L -19.601,84.996 L 6.72,52.073 Q 8.24,50.134 8.7,48.518 9.17,46.901 9.17,45.378 9.17,41.868 6.67,38.867 4.18,35.866 -0.115,35.819 -4.04,35.819 -6.811,38.405 -9.581,40.991 -9.951,45.562 L -19.601,45.562 Q -19.555,37.389 -14.014,31.802 -8.473,26.215 -0.854,26.169 7.55,26.169 13.14,31.802 18.72,37.436 18.77,45.47 18.77,52.304 14.75,57.291 L -6.903,84.442 L 18.77,84.442 L 18.77,94.046 L -19.601,94.046 z"/>
		<path transform="translate(  0.0,0)" id="PfadE" style="fill :#000000;" d="M -17.8,46.116 V -17.8,26.769 L 20.48,26.769 L 20.48,36.42 L -2.286,94.046 L -13.091,94.046 L 9.72,36.42 L -8.15,36.42 L -8.15,46.116 L -17.8,46.116 z"/>
		<path transform="translate( 48.0,0)" id="PfadA" style="fill :#000000;" d="M -18.97,79.92 C -18.94,70.08 -10.73,66.83 -3.88,66.66 L 9.22,66.57 C 9.05,58.85 9.89,55.96 0.34,55.53 -4.23,55.48 -6.72,56.44 -9.12,58.94 L -16.69,53.14 C -11.32,46.59 -6.30,46.05 1.49,46.04 8.90,46.16 14.80,49.03 17.53,54.37 19.00,57.27 18.57,60.92 18.57,76.32 L 18.57,94.57 C 18.57,94.57 9.57,94.52 9.57,94.52 L 9.57,90.22 7.23,92.42 C 4.22,95.25 1.99,95.17 -2.33,95.17 -14.70,95.17 -19.00,88.15 -18.97,79.92 z M 9.19,81.00 9.22,74.66 2.16,74.57 C -4.61,74.48 -6.14,74.88 -8.36,76.87 -10.90,79.14 -11.21,86.30 0.42,86.52 7.24,86.64 9.30,83.20 9.19,81.00 L 9.19,81.00 z"/>
	</g>
</svg>