<?xml version="1.0" encoding="UTF-8" standalone="no"?>
<svg xmlns:svg="http://www.w3.org/2000/svg" xmlns="http://www.w3.org/2000/svg" version="1.1" width="200px" height="120px" viewBox="-100 0 200 120">
	<defs/>
	<g style="stroke :none; fill-rule :evenodd;">
		<rect style="fill :#F0CA00;" x="-100.00" y="0.00" width="200.0" height="120.0" rx="22.25" ry="22.25"/>
		<rect style="fill :#000000;" x="-95.75" y="4.25" width="191.5" height="111.5" rx="18.00" ry="18.00"/>
		<rect style="fill :#F0CA00;" x="-88.75" y="11.25" width="177.5" height="97.5" rx="11.00" ry="11.00"/>
		<path transform="translate(-36.0,0)" id="PfadE" style="fill :#000000;" d="M -19.601,94.046 L -19.601,84.996 L 6.72,52.073 Q 8.24,50.134 8.7,48.518 9.17,46.901 9.17,45.378 9.17,41.868 6.67,38.867 4.18,35.866 -0.115,35.819 -4.04,35.819 -6.811,38.405 -9.581,40.991 -9.951,45.562 L -19.601,45.562 Q -19.555,37.389 -14.014,31.802 -8.473,26.215 -0.854,26.169 7.55,26.169 13.14,31.802 18.72,37.436 18.77,45.47 18.77,52.304 14.75,57.291 L -6.903,84.442 L 18.77,84.442 L 18.77,94.046 L -19.601,94.046 z"/>
		<path transform="translate(30,0)" id="pathR" style="fill :#000000;" d="M -14.425,35.819 L -14.425,56.229 L 0.995,56.229 Q 6.715,56.229 9.585,53.043 12.445,49.857 12.445,45.562 12.445,40.437 9.025,37.897 6.165,35.819 1.595,35.819 L -14.425,35.819 z M -24.635,94.046 L -24.635,26.769 L 1.685,26.769 Q 10.325,26.769 15.355,31.202 18.175,33.649 20.115,37.343 22.045,41.037 22.095,45.562 22.095,52.073 18.635,57.06 15.165,62.047 9.025,64.171 L 24.635,94.046 L 12.535,94.046 L -1.365,65.325 L -14.425,65.325 L -14.425,94.046 L -24.635,94.046 z"/>
	</g>
</svg>