<?xml version="1.0" encoding="UTF-8" standalone="no"?>
<svg xmlns:svg="http://www.w3.org/2000/svg" xmlns="http://www.w3.org/2000/svg" version="1.1" width="200px" height="120px" viewBox="-100 0 200 120">
	<defs/>
	<g style="stroke :none; fill-rule :evenodd;">
		<rect style="fill :#F0CA00;" x="-100.00" y="0.00" width="200.0" height="120.0" rx="22.25" ry="22.25"/>
		<rect style="fill :#000000;" x="-95.75" y="4.25" width="191.5" height="111.5" rx="18.00" ry="18.00"/>
		<rect style="fill :#F0CA00;" x="-88.75" y="11.25" width="177.5" height="97.5" rx="11.00" ry="11.00"/>
		<path transform="translate(-48.0,0)" id="PfadH" style="fill :#000000;" d="M -5.98,63.617 L -5.98,55.121 L -2.655,55.121 Q 2.15,55.121 4.92,52.442 7.69,49.764 7.73,45.562 7.73,41.453 4.83,38.636 1.92,35.819 -2.101,35.819 -5.149,35.819 -7.873,37.851 -10.597,39.883 -11.382,43.946 L -21.033,43.946 Q -20.479,36.835 -15.076,31.525 -9.674,26.215 -2.47,26.169 6.53,26.169 11.94,32.079 17.34,37.99 17.38,45.378 17.38,49.256 15.86,52.904 14.34,56.552 10.18,59.276 14.43,62.001 16.28,65.972 18.12,69.943 18.12,74.006 18.12,83.426 12.21,89.013 6.3,94.6 -2.286,94.6 -9.12,94.6 -14.568,90.214 -20.017,85.827 -21.402,77.331 L -11.752,77.331 Q -10.412,80.794 -8.15,82.872 -5.887,84.95 -1.732,84.996 2.29,84.996 5.38,82.179 8.47,79.363 8.47,74.329 8.47,69.296 5.43,66.48 2.38,63.663 -1.916,63.617 L -5.98,63.617 z"/>
		<path transform="translate(  1.0,0)" id="PfadZ" style="fill :#000000;" d="M 9.54,74.699 L 9.54,46.116 Q 9.54,41.268 6.95,38.544 4.36,35.819 0.07,35.819 -4.225,35.819 -6.811,38.544 -9.397,41.268 -9.397,46.116 L -9.397,74.699 Q -9.397,79.593 -6.811,82.272 -4.225,84.95 0.07,84.996 4.32,84.996 6.9,82.318 9.49,79.64 9.54,74.699 z M -19.047,75.253 L -19.047,45.562 Q -19.047,36.281 -13.229,31.248 -7.411,26.215 0.07,26.169 7.5,26.169 13.32,31.202 19.14,36.235 19.19,45.562 L 19.19,75.253 Q 19.19,84.534 13.37,89.567 7.55,94.6 0.07,94.6 -7.411,94.6 -13.229,89.567 -19.047,84.534 -19.047,75.253 z"/>
		<path transform="translate( 49.0,0)" id="PfadE" style="fill :#000000;" d="M -17.8,46.116 V -17.8,26.769 L 20.48,26.769 L 20.48,36.42 L -2.286,94.046 L -13.091,94.046 L 9.72,36.42 L -8.15,36.42 L -8.15,46.116 L -17.8,46.116 z"/>
	</g>
</svg>