<?xml version="1.0" encoding="UTF-8" standalone="no"?>
<svg xmlns:svg="http://www.w3.org/2000/svg" xmlns="http://www.w3.org/2000/svg" version="1.1" width="200px" height="120px" viewBox="-100 0 200 120">
	<defs/>
	<g style="stroke :none; fill-rule :evenodd;">
		<rect style="fill :#F0CA00;" x="-100.00" y="0.00" width="200.0" height="120.0" rx="22.25" ry="22.25"/>
		<rect style="fill :#000000;" x="-95.75" y="4.25" width="191.5" height="111.5" rx="18.00" ry="18.00"/>
		<rect style="fill :#F0CA00;" x="-88.75" y="11.25" width="177.5" height="97.5" rx="11.00" ry="11.00"/>
		<path transform="translate(-25.0,0)" id="PfadZ" style="fill :#000000;" d="M -5.98,63.617 L -5.98,55.121 L -2.655,55.121 Q 2.15,55.121 4.92,52.442 7.69,49.764 7.73,45.562 7.73,41.453 4.83,38.636 1.92,35.819 -2.101,35.819 -5.149,35.819 -7.873,37.851 -10.597,39.883 -11.382,43.946 L -21.033,43.946 Q -20.479,36.835 -15.076,31.525 -9.674,26.215 -2.47,26.169 6.53,26.169 11.94,32.079 17.34,37.99 17.38,45.378 17.38,49.256 15.86,52.904 14.34,56.552 10.18,59.276 14.43,62.001 16.28,65.972 18.12,69.943 18.12,74.006 18.12,83.426 12.21,89.013 6.3,94.6 -2.286,94.6 -9.12,94.6 -14.568,90.214 -20.017,85.827 -21.402,77.331 L -11.752,77.331 Q -10.412,80.794 -8.15,82.872 -5.887,84.95 -1.732,84.996 2.29,84.996 5.38,82.179 8.47,79.363 8.47,74.329 8.47,69.296 5.43,66.48 2.38,63.663 -1.916,63.617 L -5.98,63.617 z"/>
		<path transform="translate( 25.0,0)" id="PfadE" style="fill :#000000;" d="M -9.581,45.47 Q -9.581,50.226 -6.626,52.673 -3.671,55.121 0.07,55.121 3.76,55.121 6.72,52.673 9.67,50.226 9.72,45.47 9.72,40.76 6.76,38.313 3.81,35.866 0.07,35.819 -3.625,35.819 -6.58,38.267 -9.535,40.714 -9.581,45.47 z M -20.432,74.422 Q -20.432,64.586 -12.49,59.276 -15.492,56.598 -17.339,53.366 -19.186,50.134 -19.232,45.655 -19.232,37.528 -13.691,31.848 -8.15,26.169 0.07,26.169 8.24,26.169 13.78,31.848 19.32,37.528 19.37,45.655 19.37,50.088 17.48,53.32 15.58,56.552 12.68,59.276 20.57,64.633 20.57,74.422 20.57,83.38 14.52,88.967 8.47,94.554 0.07,94.6 -8.335,94.6 -14.384,89.013 -20.432,83.426 -20.432,74.422 z M -10.782,74.329 Q -10.782,78.947 -7.55,81.948 -4.317,84.95 0.07,84.996 4.36,84.996 7.64,81.994 10.92,78.993 10.97,74.329 10.97,69.712 7.69,66.664 4.41,63.617 0.07,63.617 -4.271,63.617 -7.503,66.664 -10.736,69.712 -10.782,74.329 z"/>
	</g>
</svg>