<?xml version="1.0" encoding="UTF-8" standalone="no"?>
<svg xmlns:svg="http://www.w3.org/2000/svg" xmlns="http://www.w3.org/2000/svg" version="1.1" width="200px" height="120px" viewBox="-100 0 200 120">
	<defs/>
	<g style="stroke :none; fill-rule :evenodd;">
		<rect style="fill :#F0CA00;" x="-100.00" y="0.00" width="200.0" height="120.0" rx="22.25" ry="22.25"/>
		<rect style="fill :#000000;" x="-95.75" y="4.25" width="191.5" height="111.5" rx="18.00" ry="18.00"/>
		<rect style="fill :#F0CA00;" x="-88.75" y="11.25" width="177.5" height="97.5" rx="11.00" ry="11.00"/>
		<path transform="translate(-26.0,0)" id="PfadZ" style="fill :#000000;" d="M -21.494,84.072 L -21.494,74.976 L 1.04,26.769 L 11.8,26.769 L -10.967,74.976 L 6.58,74.976 L 6.58,55.582 L 16.23,55.582 L 16.23,74.976 L 21.63,74.976 L 21.63,84.072 L 16.23,84.072 L 16.23,94.046 L 6.58,94.046 L 6.58,84.072 L -21.494,84.072 z"/>
		<path transform="translate( 26.0,0)" id="PfadE" style="fill :#000000;" d="M -21.494,84.072 L -21.494,74.976 L 1.04,26.769 L 11.8,26.769 L -10.967,74.976 L 6.58,74.976 L 6.58,55.582 L 16.23,55.582 L 16.23,74.976 L 21.63,74.976 L 21.63,84.072 L 16.23,84.072 L 16.23,94.046 L 6.58,94.046 L 6.58,84.072 L -21.494,84.072 z"/>
	</g>
</svg>