<?xml version="1.0" encoding="UTF-8" standalone="no"?>
<svg xmlns:svg="http://www.w3.org/2000/svg" xmlns="http://www.w3.org/2000/svg" version="1.1" width="200px" height="120px" viewBox="-100 0 200 120">
	<defs/>
	<g style="stroke :none; fill-rule :evenodd;">
		<rect style="fill :#F0CA00;" x="-100.00" y="0.00" width="200.0" height="120.0" rx="22.25" ry="22.25"/>
		<rect style="fill :#000000;" x="-95.75" y="4.25" width="191.5" height="111.5" rx="18.00" ry="18.00"/>
		<rect style="fill :#F0CA00;" x="-88.75" y="11.25" width="177.5" height="97.5" rx="11.00" ry="11.00"/>
		<path transform="translate(-48.0,0)" id="PfadH" style="fill :#000000;" d="M -21.494,84.072 L -21.494,74.976 L 1.04,26.769 L 11.8,26.769 L -10.967,74.976 L 6.58,74.976 L 6.58,55.582 L 16.23,55.582 L 16.23,74.976 L 21.63,74.976 L 21.63,84.072 L 16.23,84.072 L 16.23,94.046 L 6.58,94.046 L 6.58,84.072 L -21.494,84.072 z"/>
		<path transform="translate(  2.0,0)" id="PfadZ" style="fill :#000000;" d="M -17.8,46.116 V -17.8,26.769 L 20.48,26.769 L 20.48,36.42 L -2.286,94.046 L -13.091,94.046 L 9.72,36.42 L -8.15,36.42 L -8.15,46.116 L -17.8,46.116 z"/>
		<path transform="translate( 50.0,0)" id="PfadE" style="fill :#000000;" d="M -17.893,63.155 L -17.893,26.769 L 17.94,26.769 L 17.94,36.42 L -8.796,36.42 L -8.796,51.611 Q -4.179,47.917 1.96,47.917 5.79,47.917 8.93,49.395 12.07,50.873 13.97,52.858 16.74,55.859 17.99,59.369 19.23,62.878 19.28,71.282 19.28,78.07 18.31,81.348 17.34,84.626 15.12,87.443 13.04,90.075 9.3,92.338 5.56,94.6 0.53,94.6 -5.98,94.6 -12.029,90.583 -18.078,86.566 -19.14,77.146 L -9.489,77.146 Q -7.78,84.996 0.16,84.996 7.23,84.996 8.43,80.147 9.63,75.299 9.63,70.543 9.63,64.956 7.73,61.262 5.84,57.568 -0.115,57.568 -5.703,57.568 -8.796,63.155 L -17.893,63.155 z"/>
	</g>
</svg>