<?xml version="1.0" encoding="UTF-8" standalone="no"?>
<svg xmlns:svg="http://www.w3.org/2000/svg" xmlns="http://www.w3.org/2000/svg" version="1.1" width="200px" height="120px" viewBox="-100 0 200 120">
	<defs/>
	<g style="stroke :none; fill-rule :evenodd;">
		<rect style="fill :#F0CA00;" x="-100.00" y="0.00" width="200.0" height="120.0" rx="22.25" ry="22.25"/>
		<rect style="fill :#000000;" x="-95.75" y="4.25" width="191.5" height="111.5" rx="18.00" ry="18.00"/>
		<rect style="fill :#F0CA00;" x="-88.75" y="11.25" width="177.5" height="97.5" rx="11.00" ry="11.00"/>
		<path transform="translate(-49.0,0)" id="PfadH" style="fill :#000000;" d="M -17.893,63.155 L -17.893,26.769 L 17.94,26.769 L 17.94,36.42 L -8.796,36.42 L -8.796,51.611 Q -4.179,47.917 1.96,47.917 5.79,47.917 8.93,49.395 12.07,50.873 13.97,52.858 16.74,55.859 17.99,59.369 19.23,62.878 19.28,71.282 19.28,78.07 18.31,81.348 17.34,84.626 15.12,87.443 13.04,90.075 9.3,92.338 5.56,94.6 0.53,94.6 -5.98,94.6 -12.029,90.583 -18.078,86.566 -19.14,77.146 L -9.489,77.146 Q -7.78,84.996 0.16,84.996 7.23,84.996 8.43,80.147 9.63,75.299 9.63,70.543 9.63,64.956 7.73,61.262 5.84,57.568 -0.115,57.568 -5.703,57.568 -8.796,63.155 L -17.893,63.155 z"/>
		<path transform="translate( -1.0,0)" id="PfadZ" style="fill :#000000;" d="M 9.54,74.699 L 9.54,46.116 Q 9.54,41.268 6.95,38.544 4.36,35.819 0.07,35.819 -4.225,35.819 -6.811,38.544 -9.397,41.268 -9.397,46.116 L -9.397,74.699 Q -9.397,79.593 -6.811,82.272 -4.225,84.95 0.07,84.996 4.32,84.996 6.9,82.318 9.49,79.64 9.54,74.699 z M -19.047,75.253 L -19.047,45.562 Q -19.047,36.281 -13.229,31.248 -7.411,26.215 0.07,26.169 7.5,26.169 13.32,31.202 19.14,36.235 19.19,45.562 L 19.19,75.253 Q 19.19,84.534 13.37,89.567 7.55,94.6 0.07,94.6 -7.411,94.6 -13.229,89.567 -19.047,84.534 -19.047,75.253 z"/>
		<path transform="translate( 48.0,0)" id="PfadE" style="fill :#000000;" d="M -9.581,45.47 Q -9.581,50.226 -6.626,52.673 -3.671,55.121 0.07,55.121 3.76,55.121 6.72,52.673 9.67,50.226 9.72,45.47 9.72,40.76 6.76,38.313 3.81,35.866 0.07,35.819 -3.625,35.819 -6.58,38.267 -9.535,40.714 -9.581,45.47 z M -20.432,74.422 Q -20.432,64.586 -12.49,59.276 -15.492,56.598 -17.339,53.366 -19.186,50.134 -19.232,45.655 -19.232,37.528 -13.691,31.848 -8.15,26.169 0.07,26.169 8.24,26.169 13.78,31.848 19.32,37.528 19.37,45.655 19.37,50.088 17.48,53.32 15.58,56.552 12.68,59.276 20.57,64.633 20.57,74.422 20.57,83.38 14.52,88.967 8.47,94.554 0.07,94.6 -8.335,94.6 -14.384,89.013 -20.432,83.426 -20.432,74.422 z M -10.782,74.329 Q -10.782,78.947 -7.55,81.948 -4.317,84.95 0.07,84.996 4.36,84.996 7.64,81.994 10.92,78.993 10.97,74.329 10.97,69.712 7.69,66.664 4.41,63.617 0.07,63.617 -4.271,63.617 -7.503,66.664 -10.736,69.712 -10.782,74.329 z"/>
	</g>
</svg>