<?xml version="1.0" encoding="UTF-8"?>
<svg width="139.3" height="79.73" version="1.1" viewBox="0 0 139.3 79.73" xml:space="preserve" xmlns="http://www.w3.org/2000/svg"><g transform="matrix(1.333 0 0 -1.333 .0553 79.73)"><g transform="translate(104.3,49.75)" fill="#f6f6f6"><path d="m0 0c0 5.479-4.445 9.921-9.924 9.921h-84.326c-5.48 0-9.95-4.442-9.95-9.921v-39.69c0-5.48 4.46-9.93 9.95-9.92h84.329c5.48 0 9.921 4.45 9.921 9.92v39.69"/></g><g transform="translate(52.19,57.34)"><path d="m0 0-42.94-6.778c-2.41-0.378-4.19-2.455-4.19-4.902v-31.2c0-2.45 1.78-4.53 4.19-4.9l42.94-6.78 42.94 6.78c2.41 0.38 4.18 2.45 4.18 4.9v31.2c0 2.443-1.77 4.52-4.18 4.902l-42.94 6.778" fill="#ef2c30"/></g><g transform="scale(1,-1)" fill="#f6f6f6" stroke-width=".75032" aria-label="16"><path d="m37.99-12.56h6.16v-34.67h-5.27l-8.44 7.35 2.93 4.27 4.62-4.32z"/><path d="m60.71-23.29c0-3.92 1.54-6.51 4.48-6.51 3.17 0 4.47 2.73 4.47 6.51 0 4.07-1.35 6.56-4.47 6.56-3.08 0-4.48-2.49-4.48-6.56zm13.52-23.25c-1.2-0.45-3.23-1.19-6.41-1.19-10.63 0-13.46 9.24-13.46 19.47 0 8.94 2.43 16.2 11.27 16.2 6.56 0 10.19-4.47 10.19-11.33 0-7.55-4.38-11.28-9.24-11.28-3.38 0-5.17 1.54-6.36 3.48l-0.1-0.1c0.2-4.22 1.34-11.57 8.05-11.57 2.73 0 4.52 0.99 5.71 1.49z"/></g></g></svg>