<?xml version="1.0" encoding="UTF-8"?>
<svg width="139.3" height="79.73" version="1.1" viewBox="0 0 139.3 79.73" xml:space="preserve" xmlns="http://www.w3.org/2000/svg"><g transform="matrix(1.333 0 0 -1.333 .0553 79.73)"><g transform="translate(104.3,49.75)" fill="#f6f6f6"><path d="m0 0c0 5.479-4.445 9.921-9.924 9.921h-84.326c-5.48 0-9.95-4.442-9.95-9.921v-39.69c0-5.48 4.46-9.93 9.95-9.92h84.329c5.48 0 9.921 4.45 9.921 9.92v39.69"/></g><g transform="translate(52.19,57.34)"><path d="m0 0-42.94-6.778c-2.41-0.378-4.19-2.455-4.19-4.902v-31.2c0-2.45 1.78-4.53 4.19-4.9l42.94-6.78 42.94 6.78c2.41 0.38 4.18 2.45 4.18 4.9v31.2c0 2.443-1.77 4.52-4.18 4.902l-42.94 6.778" fill="#ef2c30"/></g><g transform="scale(1,-1)" fill="#f6f6f6" stroke-width=".75032" aria-label="18"><path d="m37.99-12.56h6.16v-34.67h-5.27l-8.44 7.35 2.93 4.27 4.62-4.32z"/><path d="m60.32-21.75c0-2.63 1.04-4.27 3.23-5.81l1.19-0.85 1.29 0.8c2.73 1.59 3.82 2.98 3.82 5.66 0 3.18-1.63 5.37-4.76 5.37-3.08 0-4.77-2.19-4.77-5.17zm-6.16 0.1c0 5.46 4.12 9.64 10.83 9.64 6.21 0 11.02-3.18 11.02-9.84 0-4.02-2.38-6.71-5.36-8.29l-1.29-0.7c3.38-1.69 5.66-4.57 5.66-8.4 0-5.51-4.77-8.44-9.83-8.44-5.87 0-10.04 3.28-10.04 9.19 0 4.02 2.09 6.36 5.51 8.05l-1.73 0.84c-2.69 1.29-4.77 4.12-4.77 7.95zm6.75-16.74c0-2.98 1.84-4.77 4.28-4.77 2.88 0 4.07 1.69 4.07 4.52 0 3.03-2.14 4.67-3.73 6.01-2.23-1.34-4.62-2.88-4.62-5.76z"/></g></g></svg>