<?xml version="1.0" encoding="UTF-8"?>
<svg width="139.3" height="79.73" version="1.1" viewBox="0 0 139.3 79.73" xml:space="preserve" xmlns="http://www.w3.org/2000/svg"><g transform="matrix(1.333 0 0 -1.333 .0553 79.73)"><g transform="translate(104.3,49.75)" fill="#f6f6f6"><path d="m0 0c0 5.479-4.445 9.921-9.924 9.921h-84.326c-5.48 0-9.95-4.442-9.95-9.921v-39.69c0-5.48 4.46-9.93 9.95-9.92h84.329c5.48 0 9.921 4.45 9.921 9.92v39.69"/></g><g transform="translate(52.19,57.34)"><path d="m0 0-42.94-6.778c-2.41-0.378-4.19-2.455-4.19-4.902v-31.2c0-2.45 1.78-4.53 4.19-4.9l42.94-6.78 42.94 6.78c2.41 0.38 4.18 2.45 4.18 4.9v31.2c0 2.443-1.77 4.52-4.18 4.902l-42.94 6.778" fill="#ef2c30"/></g><g transform="scale(1,-1)" fill="#f6f6f6" stroke-width=".75032" aria-label="20"><path d="m29.44-12.56h19.67v-5.07h-12.61l1.24-1.34c5.81-6.31 11.03-13.26 11.03-19.52 0-5.07-2.64-9.24-9.99-9.24-4.37 0-7 1.04-8.59 1.99l0.54 5.71c1.2-0.94 3.18-2.63 6.96-2.63 2.73 0 4.72 1.88 4.72 5.16 0 5.22-5.32 11.13-10.39 16.89l-2.58 2.93z"/><path d="m60.32-29.9c0-7.65 0.89-13.16 4.77-13.16 3.92 0 4.76 5.51 4.76 13.16s-0.84 13.17-4.76 13.17c-3.88 0-4.77-5.52-4.77-13.17zm-6.16 0c0 8.55 1.98 17.84 10.93 17.84 8.99 0 10.92-9.29 10.92-17.84 0-8.54-1.93-17.83-10.92-17.83-8.95 0-10.93 9.29-10.93 17.83z"/></g></g></svg>