<?xml version="1.0" encoding="UTF-8"?>
<svg width="139.3" height="79.73" version="1.1" viewBox="0 0 139.3 79.73" xml:space="preserve" xmlns="http://www.w3.org/2000/svg"><g transform="matrix(1.333 0 0 -1.333 .0553 79.73)"><g transform="translate(104.3,49.75)" fill="#f6f6f6"><path d="m0 0c0 5.479-4.445 9.921-9.924 9.921h-84.326c-5.48 0-9.95-4.442-9.95-9.921v-39.69c0-5.48 4.46-9.93 9.95-9.92h84.329c5.48 0 9.921 4.45 9.921 9.92v39.69"/></g><g transform="translate(52.19,57.34)"><path d="m0 0-42.94-6.778c-2.41-0.378-4.19-2.455-4.19-4.902v-31.2c0-2.45 1.78-4.53 4.19-4.9l42.94-6.78 42.94 6.78c2.41 0.38 4.18 2.45 4.18 4.9v31.2c0 2.443-1.77 4.52-4.18 4.902l-42.94 6.778" fill="#ef2c30"/></g><g transform="scale(1,-1)" fill="#f6f6f6" stroke-width=".75032" aria-label="3"><path d="m41.75-13.55c2.19 0.74 4.82 1.49 8.25 1.49 6.3 0 12.02-3.43 12.02-10.39 0-6.2-4.08-7.5-7.26-8.39v-0.1c2.24-0.3 6.71-1.89 6.71-8.05 0-5.66-4.27-8.74-10.38-8.74-3.93 0-6.61 0.89-8.35 1.44l0.35 5.32c2.14-1 4.52-1.69 6.61-1.69 2.88 0 5.61 1.44 5.61 4.62 0 4.32-4.07 5.26-8.05 5.26h-1.04v4.82c0.7-0.1 1.59-0.15 2.53-0.15 3.13 0 6.71 1.19 6.71 5.22 0 3.62-2.73 5.76-6.36 5.76-3.33 0-5.66-1.09-7-1.74z"/></g></g></svg>