<?xml version="1.0" encoding="UTF-8"?>
<svg width="139.3" height="79.73" version="1.1" viewBox="0 0 139.3 79.73" xml:space="preserve" xmlns="http://www.w3.org/2000/svg"><g transform="matrix(1.333 0 0 -1.333 .0553 79.73)"><g transform="translate(104.3,49.75)" fill="#f6f6f6"><path d="m0 0c0 5.479-4.445 9.921-9.924 9.921h-84.326c-5.48 0-9.95-4.442-9.95-9.921v-39.69c0-5.48 4.46-9.93 9.95-9.92h84.329c5.48 0 9.921 4.45 9.921 9.92v39.69"/></g><g transform="translate(52.19,57.34)"><path d="m0 0-42.94-6.778c-2.41-0.378-4.19-2.455-4.19-4.902v-31.2c0-2.45 1.78-4.53 4.19-4.9l42.94-6.78 42.94 6.78c2.41 0.38 4.18 2.45 4.18 4.9v31.2c0 2.443-1.77 4.52-4.18 4.902l-42.94 6.778" fill="#ef2c30"/></g><g transform="scale(1,-1)" fill="#f6f6f6" stroke-width=".75032" aria-label="5"><path d="m43.19-47.23v17.98c1.04-0.35 2.93-1.09 5.76-1.09 4.87 0 7.01 2.98 7.01 6.45 0 3.93-2.39 6.76-6.56 6.76-2.88 0-4.72-0.79-6.46-1.69l-0.4 5.32c1.64 0.49 4.43 1.44 8 1.44 7.16 0 11.78-4.47 11.78-12.12 0-6.81-4.33-10.68-9.64-10.68-1.84 0-3.08 0.19-3.93 0.44v-7.95h11.98v-4.86z"/></g></g></svg>