<?xml version="1.0" encoding="UTF-8"?>
<svg width="139.3" height="79.73" version="1.1" viewBox="0 0 139.3 79.73" xml:space="preserve" xmlns="http://www.w3.org/2000/svg"><g transform="matrix(1.333 0 0 -1.333 .0553 79.73)"><g transform="translate(104.3,49.75)" fill="#f6f6f6"><path d="m0 0c0 5.479-4.445 9.921-9.924 9.921h-84.326c-5.48 0-9.95-4.442-9.95-9.921v-39.69c0-5.48 4.46-9.93 9.95-9.92h84.329c5.48 0 9.921 4.45 9.921 9.92v39.69"/></g><g transform="translate(52.19,57.34)"><path d="m0 0-42.94-6.778c-2.41-0.378-4.19-2.455-4.19-4.902v-31.2c0-2.45 1.78-4.53 4.19-4.9l42.94-6.78 42.94 6.78c2.41 0.38 4.18 2.45 4.18 4.9v31.2c0 2.443-1.77 4.52-4.18 4.902l-42.94 6.778" fill="#ef2c30"/></g><g transform="scale(1,-1)" fill="#f6f6f6" stroke-width=".75032" aria-label="9"><path d="m47.61-36.5c0-4.08 1.34-6.56 4.47-6.56 3.08 0 4.47 2.48 4.47 6.56 0 3.92-1.54 6.5-4.47 6.5-3.18 0-4.47-2.73-4.47-6.5zm-4.57 23.24c1.19 0.45 3.23 1.2 6.41 1.2 10.63 0 13.46-9.24 13.46-19.48 0-8.94-2.43-16.19-11.27-16.19-6.56 0-10.19 4.47-10.19 11.33 0 7.55 4.37 11.27 9.24 11.27 3.38 0 5.17-1.54 6.36-3.48l0.1 0.1c-0.2 4.23-1.34 11.58-8.05 11.58-2.73 0-4.52-0.99-5.71-1.49z"/></g></g></svg>