<svg width="86" height="86" xml:space="preserve" xmlns="http://www.w3.org/2000/svg">
    <g style="fill:#ffcd01">
        <linearGradient id="a" gradientUnits="userSpaceOnUse" x1="79.238" y1="91.328" x2="6.762" y2="18.851">
            <stop offset="0" style="stop-color:#ffcd01"/>
            <stop offset=".995" style="stop-color:#ffcd01"/>
        </linearGradient>
        <path fill="url(#a)" d="M43 .3C19.417.3.3 19.418.3 43v41.277c0 .786.637 1.423 1.423 1.423h82.553c.786 0 1.423-.637 1.423-1.423V43C85.7 19.418 66.583.3 43 .3z" style="fill:#ffcd01"/>
    </g>
    <path d="M14.991 65.43c-.822-.03-1.465-.736-1.436-1.578l.311-9.144c.082-2.402 1.51-4.432 3.517-5.355l6.092-13.148 23.82.852 5.113 13.549c1.938 1.063 3.224 3.19 3.142 5.592l-.311 9.145c-.029.841-.719 1.5-1.541 1.47l-1.489-.053-.104 3.049c-.057 1.683-1.437 3-3.081 2.942-1.645-.06-2.931-1.472-2.874-3.155l.104-3.048-23.82-.852-.103 3.048c-.058 1.684-1.437 3-3.082 2.942-1.644-.059-2.93-1.471-2.873-3.155l.104-3.048zm7.123-16.531 25.605.915-3.26-8.28-18.46-.66zm-.315 2.66c-1.644-.06-3.409 1.625-3.466 3.309-.058 1.683 1.588 3.49 3.232 3.549 1.645.058 3.41-1.626 3.467-3.31.057-1.683-1.588-3.49-3.233-3.549zm26.053.93c-1.645-.058-3.41 1.626-3.467 3.31-.057 1.683 1.588 3.49 3.233 3.549 1.644.059 3.409-1.626 3.466-3.31.058-1.683-1.588-3.49-3.232-3.549zm-8.36-25.554 22.6-2.114 6.245 12.73c1.935.808 3.357 2.687 3.513 4.966l.593 8.676c.055.799-.534 1.491-1.314 1.547l-1.412.101.197 2.892c.11 1.598-1.067 2.983-2.627 3.095-1.56.111-2.913-1.093-3.022-2.69l-.198-2.892-6.577.47c-.048-2.257-1.301-4.23-3.145-5.242l-3.607-10.258 13.09-.937-3.982-8.433-17.515 1.253-1.597 4.044-4.096-.146zm24.72 12.86c-1.56.111-3.064 1.883-2.955 3.48.109 1.598 1.84 3.138 3.4 3.026 1.56-.111 3.065-1.884 2.956-3.48-.109-1.598-1.84-3.138-3.4-3.027zm-42.45-9.486a4.623 4.623 0 0 1 2.146-4.329l3.283-11.132 1.117-.1 2.233-.2 11.166-1 2.233-.2 1.117-.1 5.122 10.38.53.252-12.61.903-3.646 9.712-12.372.054zm5.638-5.112 19.206-2.216-3.266-6.124-13.846 1.24zm0 2.015c-1.233.11-2.4 1.535-2.292 2.797.107 1.263 1.498 2.458 2.732 2.348 1.233-.11 2.4-1.535 2.292-2.798-.107-1.262-1.498-2.457-2.732-2.347z" style="display:inline"/>
</svg>
